<?xml version="1.0" encoding="UTF-8"?>
<svg version="1.1" xmlns="http://www.w3.org/2000/svg" width="512" height="512">
<path d="M0 0 C1.18770049 -0.00657338 1.18770049 -0.00657338 2.39939493 -0.01327956 C5.06154868 -0.02666984 7.72366932 -0.032847 10.385849 -0.03897095 C12.29122568 -0.04687188 14.19660088 -0.05514083 16.10197449 -0.06375122 C22.3683784 -0.08997749 28.634789 -0.10528182 34.90122986 -0.11953735 C37.05892377 -0.12489723 39.21661763 -0.13027474 41.37431145 -0.13566971 C50.35165992 -0.15730141 59.3290066 -0.17603694 68.30637455 -0.1872921 C81.16741845 -0.20352254 94.0281598 -0.2366752 106.88908964 -0.29369295 C115.93381759 -0.33242249 124.97846473 -0.35192851 134.02327341 -0.35721266 C139.42390774 -0.36086263 144.82421942 -0.37284616 150.22476387 -0.4053154 C155.30968996 -0.43544798 160.39409907 -0.44168923 165.47909546 -0.42993164 C167.34064603 -0.42971133 169.20222094 -0.43798141 171.06368828 -0.45558548 C189.89353937 -0.62389848 189.89353937 -0.62389848 197.30357361 5.15390015 C204.087047 12.19163764 205.61823637 19.35156569 205.53062439 28.84310913 C205.53091644 29.68293839 205.5312085 30.52276764 205.5315094 31.38804626 C205.53012485 34.14213682 205.51460513 36.89595106 205.49888611 39.6499939 C205.49515286 41.56812899 205.49230736 43.486266 205.49031067 45.40440369 C205.48269874 50.43661831 205.46307129 55.46871627 205.44090271 60.50088501 C205.42039161 65.6423688 205.41129771 70.78387156 205.40122986 75.92538452 C205.37982303 86.00160747 205.34571666 96.07774408 205.30357361 106.15390015 C206.41273132 106.14092896 207.52188904 106.12795776 208.66465759 106.11459351 C214.16655173 106.17402356 217.98031186 108.03994126 222.03794861 111.73202515 C227.60653601 117.85195784 230.02490295 124.04383122 229.68638611 132.3374939 C228.09020859 144.08079994 218.75217866 150.8648074 210.30357361 158.15390015 C209.56622986 158.80100952 208.82888611 159.4481189 208.06919861 160.11483765 C206.8556946 161.17795014 205.63826382 162.23659788 204.41685486 163.2906189 C201.54405713 165.82356625 198.73795385 168.42600895 195.92857361 171.02890015 C190.43185164 176.12161384 184.88655326 181.15571705 179.30357361 186.15390015 C173.90019503 190.99860954 168.51992938 195.8659909 163.17857361 200.77890015 C159.94140144 203.75608295 156.69219632 206.7134287 153.36607361 209.59140015 C149.81953334 212.66605148 146.37202281 215.84004428 142.92857361 219.02890015 C141.79449333 220.07711435 140.66037906 221.12529178 139.52622986 222.1734314 C137.59375953 223.95956262 135.66415067 225.74855374 133.73716736 227.5406189 C107.66800139 251.46240711 82.39385439 261.51179846 46.60484314 260.34481812 C26.46879062 259.18031634 8.09985255 248.67341527 -9.79042053 240.22079468 C-20.21859319 235.2954136 -30.69212484 230.47716872 -41.19642639 225.71640015 C-41.93054749 225.38358032 -42.66466858 225.0507605 -43.42103577 224.70785522 C-47.511641 222.85389629 -51.60345577 221.00263252 -55.69642639 219.15390015 C-55.91359314 220.57775024 -55.91359314 220.57775024 -56.13514709 222.03036499 C-57.13340355 227.58569037 -60.24930252 230.9899092 -64.57142639 234.46640015 C-71.76239141 238.34952126 -78.33530176 238.46155728 -86.36048889 238.4546814 C-87.47072418 238.45896652 -88.58095947 238.46325165 -89.72483826 238.46766663 C-92.06301696 238.47339096 -94.40121347 238.47392423 -96.73939514 238.46957397 C-100.31652523 238.46640449 -103.89283533 238.48993069 -107.46986389 238.51522827 C-109.74590452 238.51750049 -112.02194736 238.51820512 -114.29798889 238.5171814 C-115.36578583 238.52639114 -116.43358276 238.53560089 -117.53373718 238.54508972 C-123.26087913 238.50934818 -127.43088486 238.41944167 -131.69642639 234.15390015 C-131.7997031 232.17387143 -131.83165274 230.1901109 -131.83686829 228.20739746 C-131.8454335 226.2681691 -131.8454335 226.2681691 -131.85417175 224.2897644 C-131.85541724 222.84359751 -131.85654231 221.3974305 -131.8575592 219.95126343 C-131.86218496 218.43876015 -131.86720929 216.92625805 -131.87260437 215.41375732 C-131.88575387 211.29391224 -131.89217829 207.17408348 -131.89661503 203.05422068 C-131.89954168 200.482748 -131.9036457 197.91127983 -131.9081192 195.33980942 C-131.92180091 187.30140074 -131.93146424 179.26300231 -131.93532109 171.22458279 C-131.93980354 161.93219547 -131.95735722 152.63995512 -131.98632169 143.3476125 C-132.00790924 136.1739287 -132.01802381 129.00028634 -132.01936221 121.82657039 C-132.02041236 117.53788862 -132.02636437 113.24934487 -132.04418182 108.96069717 C-132.06061207 104.92730846 -132.06284278 100.89416227 -132.05404282 96.86075211 C-132.05326972 95.37845207 -132.05765093 93.89613927 -132.06750107 92.41387177 C-132.08013843 90.39407706 -132.07258216 88.37418577 -132.06391907 86.35437012 C-132.06538563 85.22278536 -132.06685219 84.0912006 -132.06836319 82.92532539 C-131.69642639 80.15390015 -131.69642639 80.15390015 -130.3609581 78.32887077 C-127.26798609 76.14558328 -124.47573574 76.02140937 -120.81703186 75.99276733 C-119.32935806 75.97835602 -119.32935806 75.97835602 -117.81163025 75.96365356 C-116.73978485 75.95940369 -115.66793945 75.95515381 -114.56361389 75.95077515 C-113.45720551 75.94507507 -112.35079712 75.939375 -111.21086121 75.9335022 C-108.86556454 75.92404877 -106.52025457 75.91751686 -104.17494202 75.91366577 C-100.60634248 75.90399477 -97.03832738 75.87298821 -93.46986389 75.84140015 C-91.1886173 75.83486644 -88.9073666 75.82961741 -86.62611389 75.82577515 C-85.56641388 75.81342834 -84.50671387 75.80108154 -83.41490173 75.7883606 C-75.77127672 75.81105712 -68.63482385 76.66360902 -62.38392639 81.40390015 C-59.69642639 84.15390015 -59.69642639 84.15390015 -58.51283264 87.7671814 C-57.55910678 89.74097067 -57.55910678 89.74097067 -55.69642639 91.15390015 C-50.46709131 92.22485911 -45.25778449 92.13435706 -39.94642639 92.09140015 C-38.47113446 92.10451169 -36.99586679 92.12075286 -35.52064514 92.14022827 C-31.91214554 92.18104688 -28.30513818 92.17891666 -24.69642639 92.15390015 C-24.70975006 91.22397247 -24.72307373 90.2940448 -24.73680115 89.3359375 C-24.85884165 80.53895725 -24.9485698 71.74215047 -25.00729942 62.94451332 C-25.03850929 58.42231374 -25.08079012 53.90080175 -25.14906311 49.3789978 C-25.21462879 45.00876561 -25.25021009 40.63919147 -25.26568985 36.2685051 C-25.27670999 34.60759507 -25.29822942 32.94671792 -25.33080673 31.28609085 C-25.50938218 21.79920456 -25.46477324 13.58653669 -18.69642639 6.15390015 C-12.68359474 1.39590709 -7.62301316 0.00510567 0 0 Z " fill="#050403" transform="translate(173.69642639160156,247.84609985351563)"/>
<path d="M0 0 C7.92526026 4.57809937 15.95142359 8.97736938 23.96630859 13.39599609 C25.07312988 14.00781738 26.17995117 14.61963867 27.3203125 15.25 C28.31256836 15.7968042 29.30482422 16.3436084 30.32714844 16.90698242 C32.5859375 18.20703125 32.5859375 18.20703125 33.5859375 19.20703125 C35.37066444 19.27982212 37.15830278 19.28226536 38.94433594 19.25708008 C40.08932556 19.24409378 41.23431519 19.23110748 42.41400146 19.21772766 C43.66183411 19.20001816 44.90966675 19.18230865 46.1953125 19.1640625 C48.81249238 19.14166895 51.42968043 19.12021413 54.046875 19.09960938 C58.19257049 19.06380515 62.33799194 19.02122448 66.48339844 18.96020508 C70.47061185 18.90227033 74.45775332 18.8766234 78.4453125 18.8515625 C80.30491608 18.81588921 80.30491608 18.81588921 82.2020874 18.77949524 C83.35968567 18.77596542 84.51728394 18.77243561 85.70996094 18.76879883 C87.2343277 18.75095085 87.2343277 18.75095085 88.78948975 18.73274231 C92.68527949 19.39348413 94.08206478 20.09163505 96.5859375 23.20703125 C97.33917995 27.09468902 97.25792125 30.93960938 97.21704102 34.88867188 C97.22777397 36.67944405 97.22777397 36.67944405 97.23872375 38.50639343 C97.25273463 41.77734215 97.24430253 45.04726727 97.22463346 48.3181591 C97.20824274 51.74226702 97.21706041 55.16632347 97.22215271 58.5904541 C97.22667325 64.34054584 97.21080676 70.09031224 97.18286133 75.84033203 C97.1508092 82.48655321 97.15082502 89.13218764 97.1680761 95.77845049 C97.18394442 102.17400495 97.1772058 108.56934446 97.16013908 114.96488953 C97.15326955 117.68574247 97.1542999 120.40642305 97.16168404 123.12727356 C97.16712161 126.92701821 97.14680532 130.72576015 97.11938477 134.52539062 C97.12917358 136.21960396 97.12917358 136.21960396 97.13916016 137.94804382 C97.12007347 139.50003227 97.12007347 139.50003227 97.1006012 141.08337402 C97.09779428 141.98153587 97.09498735 142.87969772 97.09209538 143.8050766 C96.42208638 146.98458104 95.08284673 148.19471171 92.5859375 150.20703125 C90.084198 150.72169495 90.084198 150.72169495 87.24169922 150.74047852 C86.1731369 150.75631485 85.10457458 150.77215118 84.00363159 150.78846741 C82.85258942 150.78350754 81.70154724 150.77854767 80.515625 150.7734375 C79.32421906 150.77963608 78.13281311 150.78583466 76.90530396 150.79222107 C74.38186459 150.79932705 71.85837842 150.79613179 69.33496094 150.78344727 C65.49585084 150.76965666 61.65921389 150.80355589 57.8203125 150.84179688 C55.36458274 150.84274882 52.90884996 150.84088518 50.453125 150.8359375 C49.31422821 150.84919571 48.17533142 150.86245392 47.00192261 150.87611389 C38.76538069 150.78118806 31.73102332 149.21381717 25.64547729 143.33131409 C24.21538328 141.68707775 22.88793718 139.95445187 21.5859375 138.20703125 C21.05339355 138.55894531 20.52084961 138.91085938 19.97216797 139.2734375 C-20.93724479 166.24706364 -20.93724479 166.24706364 -43.3671875 162.74609375 C-55.3025329 160.09032318 -65.33504343 153.91315024 -75.4140625 147.20703125 C-80.61764951 154.96161753 -85.78255988 162.73866627 -90.8515625 170.58203125 C-91.30321777 171.27876953 -91.75487305 171.97550781 -92.22021484 172.69335938 C-94.64623583 176.44258658 -97.04524581 180.20652999 -99.4140625 183.9921875 C-100.15184937 185.16031982 -100.15184937 185.16031982 -100.90454102 186.35205078 C-101.84795887 187.84668443 -102.78374203 189.34617282 -103.71069336 190.85107422 C-104.13745361 191.52412598 -104.56421387 192.19717773 -105.00390625 192.890625 C-105.55872681 193.78092407 -105.55872681 193.78092407 -106.12475586 194.68920898 C-107.71455307 196.56078052 -109.13532152 197.31837132 -111.4140625 198.20703125 C-118.60224034 198.33490227 -123.48381261 194.27118607 -129.2265625 190.33203125 C-131.29287805 188.94843852 -133.36060078 187.56694516 -135.4296875 186.1875 C-136.44740234 185.50606934 -137.46511719 184.82463867 -138.51367188 184.12255859 C-142.44197205 181.52816102 -146.44259062 179.07016047 -150.4765625 176.64453125 C-159.99570598 170.89495137 -169.35736836 164.90618805 -178.72851562 158.91943359 C-182.84505456 156.29457867 -186.97243916 153.6870305 -191.1015625 151.08203125 C-191.87363037 150.59484619 -192.64569824 150.10766113 -193.44116211 149.60571289 C-194.98984015 148.62863459 -196.53858659 147.65166468 -198.08740234 146.67480469 C-202.03066495 144.18719768 -205.97227018 141.69696711 -209.9140625 139.20703125 C-211.4973881 138.20701901 -213.08072143 137.207019 -214.6640625 136.20703125 C-230.49739583 126.20703125 -246.33072917 116.20703125 -262.1640625 106.20703125 C-263.34101685 105.46380615 -263.34101685 105.46380615 -264.54174805 104.70556641 C-266.11640842 103.71089054 -267.6907925 102.71577715 -269.26489258 101.72021484 C-273.35370245 99.13499903 -277.44781858 96.55879819 -281.55078125 93.99609375 C-282.39640625 93.46628906 -283.24203125 92.93648438 -284.11328125 92.390625 C-285.71435247 91.38775621 -287.3170885 90.38753782 -288.921875 89.390625 C-302.16380287 81.08242069 -302.16380287 81.08242069 -305.4140625 76.20703125 C-305.14404904 71.15851928 -303.93566826 67.77296881 -301.265625 63.5234375 C-300.59982422 62.44771484 -299.93402344 61.37199219 -299.24804688 60.26367188 C-298.70990356 59.41252808 -298.70990356 59.41252808 -298.16088867 58.54418945 C-296.61095734 56.0922959 -295.08771498 53.62418527 -293.56256104 51.15682983 C-292.75344494 49.84826012 -291.94299692 48.54051313 -291.13128662 47.23355103 C-287.02679803 40.61607106 -283.05725312 33.92129768 -279.099823 27.21517944 C-272.80509884 16.55473076 -266.48120885 5.91072503 -260.09033203 -4.69238281 C-259.35600966 -5.91249759 -258.62370184 -7.1338274 -257.89355469 -8.35644531 C-256.88647572 -10.04178025 -255.8711502 -11.72217915 -254.85546875 -13.40234375 C-253.99997437 -14.82498535 -253.99997437 -14.82498535 -253.12719727 -16.27636719 C-251.40623319 -18.80447003 -249.74665617 -20.81521707 -247.4140625 -22.79296875 C-241.96168958 -23.5284051 -238.79763476 -22.35050268 -234.1640625 -19.54296875 C-233.27025879 -19.00833008 -233.27025879 -19.00833008 -232.35839844 -18.46289062 C-230.36394932 -17.25950172 -228.38766092 -16.03023417 -226.4140625 -14.79296875 C-225.72828125 -14.36435547 -225.0425 -13.93574219 -224.3359375 -13.49414062 C-220.47556824 -11.07436537 -216.62864519 -8.63397278 -212.78515625 -6.1875 C-206.80291207 -2.39101114 -200.76593527 1.31483378 -194.7265625 5.01953125 C-182.24514892 12.67929672 -169.82007506 20.4257853 -157.4140625 28.20703125 C-150.21559056 22.27248854 -143.7843999 15.6317275 -137.24023438 8.99414062 C-132.6791768 4.3934504 -128.09385694 -0.09134068 -123.15893555 -4.29125977 C-121.27850101 -5.9096385 -119.47311276 -7.59549315 -117.6640625 -9.29296875 C-79.95655404 -41.94840326 -36.6696671 -21.24512459 0 0 Z " fill="#050503" transform="translate(373.4140625,29.79296875)"/>
<path d="M0 0 C1.95157013 0.00056648 1.95157013 0.00056648 3.94256592 0.00114441 C5.35787923 0.02667594 6.77318274 0.0527559 8.18847656 0.0793457 C9.64006329 0.08867511 11.0916658 0.09579063 12.54327393 0.1007843 C16.35772424 0.11984471 20.1712175 0.16893524 23.98529053 0.2243042 C27.87971042 0.27551854 31.77428549 0.29830288 35.66894531 0.32348633 C43.30609965 0.37705665 50.94246634 0.46235562 58.57910156 0.56762695 C58.58718842 1.14756409 58.59527527 1.72750122 58.60360718 2.32501221 C58.68964849 8.35972058 58.78915201 14.39410032 58.89648438 20.4284668 C58.93477313 22.68068931 58.96962617 24.93297296 59.00097656 27.18530273 C59.04662894 30.42234143 59.10462371 33.65895931 59.16503906 36.89575195 C59.17659027 37.90317444 59.18814148 38.91059692 59.20004272 39.94854736 C59.21991241 40.88922058 59.2397821 41.8298938 59.26025391 42.79907227 C59.27357758 43.62513977 59.28690125 44.45120728 59.30062866 45.30230713 C59.60859165 47.80752274 60.24298314 49.4342505 61.57910156 51.56762695 C64.60904837 53.08260036 66.16491388 53.02590718 69.57910156 52.56762695 C73.07400492 50.68401998 76.24239159 48.39418192 79.45410156 46.06762695 C80.33324219 45.44758789 81.21238281 44.82754883 82.11816406 44.1887207 C84.28100146 42.66062906 86.43381423 41.12021275 88.57910156 39.56762695 C94.83581226 42.90022137 100.36419213 46.55389954 105.90332031 50.9934082 C109.14936328 52.90312399 110.8727806 53.1779047 114.57910156 52.56762695 C116.93764383 51.2769482 116.93764383 51.2769482 118.57910156 48.56762695 C119.20752231 44.94538378 119.18409652 41.34639948 119.18847656 37.67700195 C119.20501282 36.61725159 119.22154907 35.55750122 119.23858643 34.46563721 C119.28714711 31.08290864 119.30845593 27.7006299 119.32910156 24.31762695 C119.35725439 22.02333339 119.38718084 19.72906086 119.41894531 17.43481445 C119.49290811 11.8125005 119.54450336 6.19031348 119.57910156 0.56762695 C127.98490923 0.47492743 136.39050317 0.40386281 144.79669571 0.36037827 C148.70009674 0.33950726 152.60314796 0.31119939 156.50634766 0.26586914 C160.27352077 0.22239268 164.04035751 0.19848618 167.80776215 0.18811798 C169.24471075 0.18072972 170.68164103 0.16630189 172.11844635 0.14470673 C174.13151582 0.11565492 176.14492409 0.11399291 178.15820312 0.11352539 C179.3040387 0.10464294 180.44987427 0.0957605 181.63043213 0.08660889 C184.57910156 0.56762695 184.57910156 0.56762695 186.95202637 2.03979492 C189.36914762 5.79504639 189.10764479 9.08843251 189.03320312 13.46704102 C189.03378723 14.36495361 189.03437134 15.26286621 189.03497314 16.18798828 C189.03218824 19.15347054 189.0010769 22.11794546 188.96972656 25.08325195 C188.96226562 27.14019217 188.956572 29.19713949 188.95257568 31.25408936 C188.93730784 36.66625617 188.89801582 42.07799317 188.85375977 47.48999023 C188.81283205 53.01320582 188.79456999 58.53649091 188.77441406 64.05981445 C188.73152292 74.89594073 188.66325743 85.73174809 188.57910156 96.56762695 C155.48939658 113.20774168 155.48939658 113.20774168 139.90751648 120.59713745 C132.67990804 124.02805721 125.49353534 127.53823393 118.31738281 131.07543945 C117.21200165 131.61980652 116.10662048 132.16417358 114.96774292 132.72503662 C110.44622062 134.95255705 105.92543479 137.18154118 101.40698242 139.4152832 C98.04547392 141.07629169 94.6816305 142.73248764 91.31738281 144.38793945 C89.78323479 145.14870285 89.78323479 145.14870285 88.21809387 145.92483521 C87.27157455 146.38977386 86.32505524 146.85471252 85.34985352 147.33374023 C84.10822197 147.94682541 84.10822197 147.94682541 82.84150696 148.57229614 C80.75487012 149.4902987 78.80416969 150.09644263 76.57910156 150.56762695 C77.07410156 149.39200195 77.56910156 148.21637695 78.07910156 147.00512695 C81.02045069 138.08256548 81.09887476 127.48096527 77.02832031 118.91137695 C71.95303864 110.70337424 65.73135081 104.82546402 56.57910156 101.56762695 C52.96674703 100.71660384 49.57798459 100.42088244 45.87084961 100.36230469 C44.75006516 100.34235947 43.6292807 100.32241425 42.47453308 100.30186462 C41.27540787 100.28515213 40.07628265 100.26843964 38.84082031 100.2512207 C37.60491653 100.23043961 36.36901276 100.20965851 35.09565735 100.18824768 C31.82258031 100.13402765 28.54947416 100.08375117 25.27630615 100.03540039 C21.93121897 99.98501125 18.58622432 99.92933879 15.24121094 99.87426758 C8.68724385 99.76726753 2.13321143 99.66546804 -4.42089844 99.56762695 C-4.94490234 98.2856543 -4.94490234 98.2856543 -5.47949219 96.9777832 C-5.93453125 95.87305664 -6.38957031 94.76833008 -6.85839844 93.63012695 C-7.31085938 92.52797852 -7.76332031 91.42583008 -8.22949219 90.2902832 C-9.16514451 87.70193779 -9.16514451 87.70193779 -10.42089844 86.56762695 C-10.53720378 84.06903362 -10.58888956 81.59769679 -10.59790039 79.09790039 C-10.60447159 78.31574661 -10.61104279 77.53359283 -10.61781311 76.72773743 C-10.63759664 74.1274914 -10.64922101 71.52730331 -10.65917969 68.92700195 C-10.66325521 68.04052223 -10.66733074 67.15404251 -10.67152977 66.24069977 C-10.69241394 61.54710623 -10.7067044 56.85354211 -10.71606445 52.15991211 C-10.7271226 47.30964655 -10.76150876 42.45984058 -10.80123615 37.6097374 C-10.82737914 33.88308863 -10.83575431 30.1565496 -10.83934593 26.4298172 C-10.84421938 24.64204053 -10.85585494 22.85426901 -10.87438393 21.06658173 C-10.8987224 18.5623285 -10.89782017 16.05926685 -10.89086914 13.55493164 C-10.9036792 12.81706924 -10.91648926 12.07920685 -10.9296875 11.31898499 C-10.89470849 7.85839672 -10.46798841 5.65334944 -8.79283142 2.60389709 C-5.69908383 -0.05204044 -4.0469276 -0.03921441 0 0 Z " fill="#FDCA65" transform="translate(174.4208984375,263.432373046875)"/>
<path d="M0 0 C10.23 0 20.46 0 31 0 C35.44920993 5.56151242 35.44920993 5.56151242 36.5 9.9375 C37.98176194 16.22229099 37.98176194 16.22229099 42 21 C46.60454088 21.91329504 51.21649202 21.76473286 55.890625 21.69921875 C57.2782298 21.70285512 58.66582963 21.7095608 60.05340576 21.7191925 C63.70685693 21.73826405 67.35935816 21.72424038 71.01275635 21.70068359 C76.84500244 21.66631543 82.6770052 21.67223408 88.50926971 21.6968174 C90.53681227 21.6991708 92.56345167 21.68145351 94.59088135 21.6615448 C102.35586211 21.66420829 109.06152285 21.71005425 115.27734375 26.90234375 C115.82519531 27.57394531 116.37304688 28.24554688 116.9375 28.9375 C117.50339844 29.60652344 118.06929688 30.27554687 118.65234375 30.96484375 C121.62200661 35.44946506 121.61647107 40.7856822 121 46 C119.00049918 52.18323895 115.75367449 55.84687753 110.10913086 59.08460999 C107.81106074 60.08200208 106.24678365 60.25654428 103.75390625 60.27124023 C102.92624756 60.28142685 102.09858887 60.29161346 101.24584961 60.30210876 C100.36034424 60.30424881 99.47483887 60.30638885 98.5625 60.30859375 C96.6796843 60.33374579 94.79687187 60.35914393 92.9140625 60.38476562 C89.95150544 60.41354503 86.98900504 60.43756951 84.02636719 60.45629883 C81.16311911 60.47793247 78.30052301 60.51736061 75.4375 60.55859375 C74.55199463 60.55870956 73.66648926 60.55882538 72.75415039 60.5589447 C67.89259999 60.62337938 67.89259999 60.62337938 63.44335938 62.40649414 C61.66012237 64.37523365 61.46009122 65.36602058 61.5 68 C61.4896875 68.680625 61.479375 69.36125 61.46875 70.0625 C62.23830567 72.86911481 63.53052826 73.51418138 66 75 C68.86015306 75.50680333 68.86015306 75.50680333 72.0559082 75.51513672 C73.89612297 75.56805374 73.89612297 75.56805374 75.77351379 75.62203979 C77.11590606 75.64326234 78.45833228 75.66242043 79.80078125 75.6796875 C80.82789247 75.69615515 80.82789247 75.69615515 81.8757534 75.71295547 C85.52027185 75.76970316 89.16444579 75.80747678 92.80932617 75.83056641 C95.77908174 75.8524182 98.74508206 75.90731401 101.71362305 75.99462891 C120.41351974 76.53241986 134.83104652 75.26469539 151.37045288 65.51226807 C155.70001195 63.02231309 160.2118691 60.92730187 164.71875 58.78125 C166.49480921 57.91472065 168.26970806 57.0458091 170.04345703 56.17456055 C175.78553862 53.35992042 181.52941872 50.54896555 187.2734375 47.73828125 C188.25255096 47.25905716 189.23166443 46.77983307 190.240448 46.28608704 C199.37961824 41.81312667 208.5215202 37.34579204 217.66723633 32.88623047 C219.26851443 32.10523559 220.86959847 31.32384266 222.47045898 30.54199219 C226.15283951 28.74362948 229.83754297 26.95050563 233.52832031 25.16943359 C236.72808588 23.62451918 239.91055774 22.04802659 243.08886719 20.45947266 C244.78562977 19.62496448 246.48256568 18.79080862 248.1796875 17.95703125 C248.95829132 17.56126389 249.73689514 17.16549652 250.53909302 16.75773621 C255.1977613 14.49122466 258.69966299 13.40370165 264 14 C267.00339193 16.00226129 267.81463343 17.25853373 268.6875 20.75 C266.40868623 31.5225742 251.23031131 41.09378039 243.19140625 48.05859375 C239.66726719 51.18069199 236.22954632 54.39597143 232.77758789 57.59741211 C229.88635872 60.27401038 226.98110596 62.92311179 224 65.5 C219.88639854 69.05817847 215.90904725 72.7584212 211.92016602 76.45483398 C207.8255749 80.24651647 203.69158422 83.99095463 199.53515625 87.71484375 C196.63086677 90.3327318 193.75232833 92.97757057 190.875 95.625 C186.97770521 99.2085503 183.04871435 102.74607533 179.03515625 106.19921875 C177.51421176 107.54500649 176.02715176 108.92926464 174.55859375 110.33203125 C156.97568648 126.99356346 134.83062775 137.87754306 110.28125 137.24609375 C90.42089038 136.33218984 73.45164061 127.89254925 55.75 119.625 C37.207026 110.99340707 18.60297194 102.50421575 0 94 C0 62.98 0 31.96 0 0 Z " fill="#F4CAAE" transform="translate(119,356)"/>
<path d="M0 0 C6.43032551 3.68269646 12.91345468 7.271878 19.38696289 10.87792969 C26.36126235 14.77368233 33.2754323 18.76461789 40.16308594 22.81152344 C39.83638916 23.9617247 39.50969238 25.11192596 39.1730957 26.29698181 C38.11160896 30.56404605 37.9201872 34.661974 38.00292969 39.04418945 C38.01195564 40.21413452 38.01195564 40.21413452 38.02116394 41.40771484 C38.03427049 43.08660347 38.05135832 44.76546494 38.07208252 46.44427681 C38.11099083 50.0222557 38.11283091 53.59996215 38.11688232 57.17812252 C38.12459491 63.8245701 38.14644538 70.47005258 38.23486328 77.1159668 C38.29515695 81.75527981 38.30665003 86.39251738 38.28616333 91.03214836 C38.28743703 92.79322743 38.30664015 94.55439183 38.3444519 96.31506538 C38.62738787 110.03614052 38.62738787 110.03614052 35.06787109 114.35185242 C32.50847908 116.1706003 30.0168385 117.51455389 27.16308594 118.81152344 C26.11378906 119.50721436 25.06449219 120.20290527 23.98339844 120.91967773 C21.04869231 122.78816047 18.1082579 124.64707838 15.16308594 126.49902344 C14.14730469 127.14935547 13.13152344 127.7996875 12.08496094 128.46972656 C0.49360421 135.75890666 -10.39005766 140.63717837 -24.28613281 138.42089844 C-29.41417712 137.09862586 -33.76842754 134.82494811 -38.34082031 132.18261719 C-38.95194672 131.82977158 -39.56307312 131.47692596 -40.19271851 131.11338806 C-46.50239564 127.45509566 -52.73833926 123.67656521 -58.96191406 119.87402344 C-60.77663115 118.76740955 -62.59165626 117.6613021 -64.40670776 116.55523682 C-65.65386111 115.79517856 -66.90086996 115.03488317 -68.1477356 114.27435303 C-72.59852325 111.56096616 -77.05938723 108.86468157 -81.52441406 106.17480469 C-83.40019578 105.04288303 -85.27578811 103.91064828 -87.15130615 102.77828979 C-88.33861952 102.06235965 -89.52662552 101.34757666 -90.71539307 100.63406372 C-111.8582303 87.94027689 -111.8582303 87.94027689 -113.83691406 82.81152344 C-114.50221905 78.05381914 -114.5679784 74.08411692 -112.14941406 69.87402344 C-108.71677059 66.81247656 -106.38369351 65.01047868 -101.73925781 64.41308594 C-96.44503413 64.9536373 -93.13165363 67.16442069 -88.71191406 69.99902344 C-87.84735596 70.53567627 -86.98279785 71.0723291 -86.09204102 71.62524414 C-84.26248188 72.76276912 -82.43711499 73.90706093 -80.61572266 75.05761719 C-77.88239306 76.78281837 -75.13773182 78.48810247 -72.38769531 80.18652344 C-71.49848389 80.7358252 -70.60927246 81.28512695 -69.69311523 81.85107422 C-68.81244385 82.39489746 -67.93177246 82.9387207 -67.02441406 83.49902344 C-62.13316637 86.52227734 -57.24535288 89.54866298 -52.39160156 92.63183594 C-51.06110734 93.46294134 -49.73039352 94.29369534 -48.39941406 95.12402344 C-47.52289185 95.69286255 -47.52289185 95.69286255 -46.62866211 96.27319336 C-42.89363391 98.57913868 -40.20877064 99.34787103 -35.83691406 98.81152344 C-33.04570157 96.82829351 -32.01094182 95.68166223 -31.33691406 92.31152344 C-32.15352659 88.22846078 -35.00708149 86.37958427 -38.34448242 84.0949707 C-39.74645874 83.2450354 -39.74645874 83.2450354 -41.17675781 82.37792969 C-42.22879395 81.735896 -43.28083008 81.0938623 -44.36474609 80.43237305 C-45.48993652 79.75311768 -46.61512695 79.0738623 -47.77441406 78.37402344 C-48.95301999 77.65663517 -50.13123818 76.93860951 -51.30908203 76.2199707 C-53.69154475 74.7668491 -56.07542712 73.31610422 -58.46044922 71.8671875 C-63.1417194 69.01713002 -67.80401705 66.13707345 -72.46191406 63.24902344 C-73.29827393 62.73098145 -74.13463379 62.21293945 -74.99633789 61.67919922 C-91.99646985 51.14148506 -108.93896308 40.5122306 -125.83691406 29.81152344 C-122.16191467 25.30964918 -118.39820752 21.47049972 -113.97900391 17.70898438 C-110.83721337 14.92598961 -107.9578723 11.90870538 -105.03833008 8.89599609 C-70.92036248 -26.22964576 -40.1660168 -23.14673407 0 0 Z " fill="#F4CBAE" transform="translate(355.8369140625,38.1884765625)"/>
<path d="M0 0 C4.04952172 1.43325769 7.39130137 3.69523639 10.96875 6.046875 C12.6721421 7.14483652 14.37663043 8.24109862 16.08203125 9.3359375 C16.99807129 9.92536133 17.91411133 10.51478516 18.85791016 11.12207031 C24.08492533 14.45192431 29.37263502 17.68287731 34.65625 20.921875 C36.87378469 22.28371289 39.09123296 23.64569149 41.30859375 25.0078125 C42.39124512 25.67264648 43.47389648 26.33748047 44.58935547 27.02246094 C68.511104 41.72608425 68.511104 41.72608425 79.78125 48.984375 C78.53880342 51.69724 77.62585815 53.13158833 75.40625 55.234375 C70.00417166 60.89369517 68.51162157 65.4790786 68.28125 73.359375 C68.45331015 79.99692613 69.7249294 85.12828626 72.78125 90.984375 C73.07257813 91.69207031 73.36390625 92.39976562 73.6640625 93.12890625 C75.08637953 95.49114607 76.29940029 95.79144171 78.78125 96.984375 C80.75136976 98.14470494 82.71115128 99.32265392 84.6640625 100.51171875 C85.23194489 100.85691559 85.79982727 101.20211243 86.38491821 101.55776978 C88.22629191 102.67761845 90.0662892 103.79970668 91.90625 104.921875 C93.16952214 105.69079577 94.43286883 106.45959408 95.69628906 107.22827148 C99.39269794 109.47797688 103.08727473 111.73067643 106.78125 113.984375 C107.79606445 114.60344727 108.81087891 115.22251953 109.85644531 115.86035156 C114.83373784 118.89784806 119.80874645 121.93904545 124.78125 124.984375 C123.29489884 129.20091856 121.16875841 132.60916105 118.65625 136.296875 C117.93179688 137.36550781 117.20734375 138.43414062 116.4609375 139.53515625 C115.90664063 140.34339844 115.35234375 141.15164062 114.78125 141.984375 C113.688125 141.654375 112.595 141.324375 111.46875 140.984375 C102.57603947 138.78864401 91.3810406 138.79813756 83.26171875 143.41796875 C81.71509811 144.45987636 80.18879925 145.53303627 78.69140625 146.64453125 C76.78125 147.984375 76.78125 147.984375 73.78125 148.984375 C73.78125 149.644375 73.78125 150.304375 73.78125 150.984375 C70.29431685 149.68649951 67.27265789 148.16387487 64.1484375 146.1484375 C62.83033081 145.30321533 62.83033081 145.30321533 61.4855957 144.44091797 C60.55191162 143.83650879 59.61822754 143.23209961 58.65625 142.609375 C56.66816808 141.3330228 54.67988336 140.05698643 52.69140625 138.78125 C51.19891357 137.8212207 51.19891357 137.8212207 49.67626953 136.84179688 C45.49559154 134.15950659 41.29616301 131.50743453 37.09375 128.859375 C35.5377377 127.87764017 33.98174807 126.89586941 32.42578125 125.9140625 C31.66088379 125.43163086 30.89598633 124.94919922 30.10791016 124.45214844 C26.16464755 121.96454143 22.22304232 119.47431086 18.28125 116.984375 C16.6979244 115.98436276 15.11459107 114.98436275 13.53125 113.984375 C10.36458333 111.984375 7.19791667 109.984375 4.03125 107.984375 C3.24733887 107.48929443 2.46342773 106.99421387 1.65576172 106.48413086 C0.07397862 105.48506715 -1.50772724 104.48588114 -3.08935547 103.48657227 C-7.07077979 100.97123347 -11.05356447 98.45809863 -15.0390625 95.94921875 C-25.48278947 89.37099275 -35.87213181 82.71431359 -46.21875 75.984375 C-46.15018799 75.3963208 -46.08162598 74.8082666 -46.01098633 74.20239258 C-44.57075746 61.60135698 -44.25445073 50.07189261 -52.40625 39.484375 C-52.91542969 38.8965625 -53.42460938 38.30875 -53.94921875 37.703125 C-55.45083905 35.67016213 -55.93076806 34.50213618 -56.21875 31.984375 C-55.1706543 29.52661133 -55.1706543 29.52661133 -53.54296875 26.81640625 C-52.96224609 25.84123047 -52.38152344 24.86605469 -51.78320312 23.86132812 C-51.16380859 22.85005859 -50.54441406 21.83878906 -49.90625 20.796875 C-49.29845703 19.77400391 -48.69066406 18.75113281 -48.06445312 17.69726562 C-43.51004835 10.13002418 -43.51004835 10.13002418 -41.21875 8.984375 C-40.22875 9.314375 -39.23875 9.644375 -38.21875 9.984375 C-25.86190949 10.74345584 -15.95637346 10.64138141 -5.90625 2.671875 C-5.31199219 2.13949219 -4.71773437 1.60710938 -4.10546875 1.05859375 C-2.21875 -0.015625 -2.21875 -0.015625 0 0 Z " fill="#9BCA69" transform="translate(159.21875,42.015625)"/>
<path d="M0 0 C41 0 41 0 46 4 C46.6292057 6.3679266 46.6292057 6.3679266 46.63491821 9.04100037 C46.64901733 10.05738586 46.66311646 11.07377136 46.67764282 12.12095642 C46.66752167 13.23015945 46.65740051 14.33936249 46.64697266 15.48217773 C46.65573425 16.65491241 46.66449585 17.82764709 46.67352295 19.03591919 C46.69175767 22.24907402 46.68748613 25.46119877 46.67162752 28.6743381 C46.65895827 32.03926665 46.67071172 35.40412694 46.67855835 38.76905823 C46.68765329 44.42078992 46.67567282 50.07219488 46.65185547 55.72387695 C46.62465709 62.25314752 46.63344868 68.78163714 46.6609875 75.31088871 C46.68369813 80.92041078 46.68686888 86.52969809 46.67379415 92.13925129 C46.66600846 95.48793237 46.6649328 98.83624675 46.68147659 102.1849041 C46.69416272 105.91995024 46.67483502 109.65349364 46.64697266 113.38842773 C46.65709381 114.49560654 46.66721497 115.60278534 46.67764282 116.74351501 C46.6635437 117.76272034 46.64944458 118.78192566 46.63491821 119.83201599 C46.63303308 120.71450736 46.63114796 121.59699873 46.6292057 122.50623226 C46 125 46 125 41 130 C27.47 130 13.94 130 0 130 C0 87.1 0 44.2 0 0 Z " fill="#415A70" transform="translate(57,340)"/>
<path d="M0 0 C13.86 0 27.72 0 42 0 C42 32.67 42 65.34 42 99 C28.14 99 14.28 99 0 99 C-4.12996811 94.87003189 -4.4617161 94.22754305 -4.54211426 88.77177429 C-4.52996887 87.52639641 -4.52996887 87.52639641 -4.51757812 86.25585938 C-4.5245874 85.37412552 -4.53159668 84.49239166 -4.53881836 83.5839386 C-4.55641921 80.67022175 -4.5447682 77.75747667 -4.53125 74.84375 C-4.53394431 72.81880507 -4.53782622 70.7938614 -4.54284668 68.7689209 C-4.54874456 64.52534668 -4.54016931 60.28210928 -4.52148438 56.03857422 C-4.4986948 50.59746237 -4.51181631 45.15713971 -4.53577423 39.71605682 C-4.55022428 35.53474983 -4.54562983 31.35363012 -4.53526306 27.1723175 C-4.53259359 25.16604011 -4.53587327 23.15974574 -4.54518127 21.15348816 C-4.5553337 18.34991376 -4.53986417 15.5476196 -4.51757812 12.74414062 C-4.52567505 11.9138887 -4.53377197 11.08363678 -4.54211426 10.22822571 C-4.4617161 4.77245695 -4.12996811 4.12996811 0 0 Z " fill="#415A70" transform="translate(413,65)"/>
<path d="M0 0 C6.98522116 4.99982035 11.6235464 10.65220325 14 19 C15.1083133 29.87693517 13.6954244 38.65394704 6.875 47.3125 C1.12126526 53.43824345 -6.27550591 56.46360347 -14.54296875 57.23828125 C-23.00201947 57.47568445 -29.18719246 55.49298954 -36.25 50.875 C-43.6962378 43.09029685 -46.38920703 35.33552517 -46.45092773 24.76220703 C-46.26192733 16.43388245 -43.75224804 9.86281152 -37.87890625 3.81640625 C-26.91251785 -5.3254184 -12.65959303 -7.37935252 0 0 Z " fill="#020201" transform="translate(211,92)"/>
<path d="M0 0 C9.9 0 19.8 0 30 0 C30 10.23 30 20.46 30 31 C26.37 28.69 22.74 26.38 19 24 C15.5325286 22.34846241 15.5325286 22.34846241 12 23 C9.21262696 24.64286077 6.68448123 26.43986231 4.13671875 28.43359375 C2 30 2 30 0 30 C0 20.1 0 10.2 0 0 Z " fill="#F6824A" transform="translate(249,264)"/>
<path d="M0 0 C4.65214014 2.29624866 7.38920367 5.43297765 9.078125 10.33984375 C9.77037811 15.79133698 9.15939768 19.75137548 6.47265625 24.57421875 C3.12689545 28.81030806 -1.30540067 30.11297016 -6.484375 30.83984375 C-12.11398986 30.02099068 -15.46637658 27.86998311 -19.359375 23.77734375 C-21.57819722 18.89593486 -21.68463671 14.61626756 -20.921875 9.33984375 C-18.87050779 4.82683588 -16.1963315 2.24864855 -11.84375 0.03515625 C-7.76211682 -1.44153218 -4.09716261 -1.4073587 0 0 Z " fill="#6C963B" transform="translate(200.921875,103.66015625)"/>
<path d="M0 0 C0.65310654 -0.00145523 1.30621307 -0.00291046 1.97911072 -0.00440979 C3.35501584 -0.00275479 4.73094024 0.00876223 6.10668945 0.02954102 C8.21189915 0.05855317 10.3145973 0.05013403 12.41992188 0.03710938 C13.75912681 0.04334578 15.09832381 0.05173597 16.4375 0.0625 C17.6531665 0.07224854 18.86883301 0.08199707 20.12133789 0.09204102 C23.15234375 0.49609375 23.15234375 0.49609375 25.04272461 1.88842773 C26.5001399 3.99999642 26.61829911 5.44274559 26.65234375 7.99609375 C26.68328125 8.76953125 26.71421875 9.54296875 26.74609375 10.33984375 C26.15234375 12.49609375 26.15234375 12.49609375 24.01977539 14.10375977 C18.70625242 16.68383822 12.89205123 15.96584452 7.08984375 15.93359375 C5.81044922 15.95357422 4.53105469 15.97355469 3.21289062 15.99414062 C1.98505859 15.99349609 0.75722656 15.99285156 -0.5078125 15.9921875 C-2.18822632 15.99496704 -2.18822632 15.99496704 -3.90258789 15.99780273 C-7.50441683 15.38421089 -8.68143523 14.39463138 -10.84765625 11.49609375 C-11.39854073 7.63990236 -11.5844039 5.50142278 -9.24438477 2.30834961 C-6.03711728 -0.11678501 -3.99509218 -0.00608403 0 0 Z " fill="#020100" transform="translate(297.84765625,347.50390625)"/>
<path d="M0 0 C3.39470755 1.15564512 4.87501175 2.06492057 6.9375 5 C7.5 7.9375 7.5 7.9375 6.9375 11 C4.875 13.9375 4.875 13.9375 1.9375 16 C-1.58205419 16 -3.91170059 15.63108355 -7 13.9375 C-8.76250928 10.7235125 -8.80821072 7.50343338 -8.0625 4 C-5.43455412 0.83100644 -4.13044829 0 0 0 Z " fill="#020405" transform="translate(81.0625,422)"/>
<path d="M0 0 C2.4375 1.5625 2.4375 1.5625 4 4 C4.56783945 7.97487617 4.62340519 10.06489221 2.375 13.4375 C-0.75683492 15.49791771 -2.31544773 15.6767545 -6 15 C-9.36344489 12.51397551 -10.80057749 11.08574477 -11.5625 6.9375 C-11 4 -11 4 -9.4375 1.625 C-6.06489221 -0.62340519 -3.97487617 -0.56783945 0 0 Z " fill="#010203" transform="translate(435,134)"/>
<path d="M0 0 C1.18851562 0.00902344 2.37703125 0.01804688 3.6015625 0.02734375 C4.51679688 0.03894531 5.43203125 0.05054688 6.375 0.0625 C5.42355402 1.87862488 4.46363067 3.69031081 3.5 5.5 C2.96632813 6.50933594 2.43265625 7.51867187 1.8828125 8.55859375 C0.375 11.0625 0.375 11.0625 -1.625 12.0625 C-4.2265625 10.62890625 -4.2265625 10.62890625 -7.25 8.625 C-8.25289062 7.96628906 -9.25578125 7.30757812 -10.2890625 6.62890625 C-11.05992187 6.11199219 -11.83078125 5.59507812 -12.625 5.0625 C-8.22128622 0.51199576 -6.35697115 -0.06232325 0 0 Z " fill="#6A933A" transform="translate(258.625,196.9375)"/>
<path d="M0 0 C4.30764815 1.56641751 8.06171464 3.68336156 12 6 C12 6.66 12 7.32 12 8 C5.45783241 11.94998798 0.57771707 12.50146657 -7 12 C-6.02296079 10.1863523 -5.04330895 8.37411183 -4.0625 6.5625 C-3.51722656 5.55316406 -2.97195312 4.54382813 -2.41015625 3.50390625 C-1 1 -1 1 0 0 Z " fill="#95C265" transform="translate(132,26)"/>
<path d="M0 0 C3 1 3 1 4.6875 3.375 C6.47304056 8.30649297 6.24928545 12.81116953 6 18 C1.70816541 16.35442612 -2.04580299 14.32599824 -6 12 C-4.43358249 7.69235185 -2.31663844 3.93828536 0 0 Z " fill="#6B943A" transform="translate(93,90)"/>
</svg>
