<?xml version="1.0" encoding="UTF-8"?>
<svg version="1.1" xmlns="http://www.w3.org/2000/svg" width="512" height="512">
<path d="M0 0 C1.66819209 -0.00570985 3.33638028 -0.01267648 5.00456238 -0.02079773 C9.51501151 -0.03867739 14.02526555 -0.03757044 18.53573942 -0.03185534 C22.3103819 -0.02875565 26.08498732 -0.03486468 29.85962451 -0.04089409 C38.76956644 -0.05492096 47.67941245 -0.05339364 56.58935547 -0.04199219 C65.76039588 -0.03051546 74.93114369 -0.04458334 84.10214555 -0.07138866 C91.9954481 -0.09358988 99.88865911 -0.10017301 107.78199065 -0.09431225 C112.48777185 -0.09095171 117.19336559 -0.09329731 121.89912033 -0.11056328 C126.32668801 -0.12610078 130.75382444 -0.12200194 135.1813755 -0.10325813 C136.79899454 -0.09959086 138.41664601 -0.10262594 140.034235 -0.11314392 C153.6518999 -0.1948759 164.17930309 1.86597091 174.45556641 11.40405273 C185.19966123 22.02049494 187.71710442 33.01649142 187.86962891 47.77905273 C187.89867813 49.52665894 187.89867813 49.52665894 187.92831421 51.30957031 C187.98779164 55.00765812 188.03436804 58.70577759 188.08056641 62.40405273 C188.11877546 64.92099292 188.15782887 67.43792044 188.19775391 69.95483398 C188.29346693 76.1044606 188.37860655 82.25416436 188.45556641 88.40405273 C189.15939453 87.99678955 189.86322266 87.58952637 190.58837891 87.16992188 C196.86274598 83.54076161 203.14044772 79.91751162 209.423172 76.30284119 C212.78607013 74.36758655 216.1439893 72.4240515 219.49853516 70.47436523 C220.87976112 69.67959984 222.26124465 68.88528179 223.64306641 68.09155273 C224.24570312 67.73778564 224.84833984 67.38401855 225.46923828 67.01953125 C233.97512137 62.1702586 242.81645606 60.99223654 252.35791016 63.02124023 C264.43430217 66.84910082 270.68521118 75.41158647 276.51806641 86.15405273 C277.48852524 87.88788659 278.4590089 89.62170695 279.43074036 91.35482788 C280.43959638 93.159599 281.44089619 94.96839737 282.44091797 96.77807617 C285.36871178 102.06440007 288.38607023 107.29908472 291.39523315 112.53942871 C293.07510447 115.46811894 294.74754904 118.40104202 296.42041016 121.33374023 C300.09751896 127.77775323 303.77809278 134.21978147 307.45959473 140.6612854 C308.45023621 142.39472586 309.44069477 144.12827086 310.43115234 145.86181641 C313.5318688 151.2888343 316.63330103 156.71543847 319.73727417 162.14059448 C321.19011998 164.67999515 322.64256 167.2196278 324.0949707 169.75927734 C324.78194329 170.96023921 325.46911076 172.16108962 326.15649414 173.36181641 C327.11476512 175.03576112 328.07228578 176.71013529 329.02978516 178.38452148 C329.62057861 179.41407959 330.21137207 180.4436377 330.82006836 181.50439453 C331.85436301 183.33814846 332.86643721 185.18477216 333.84692383 187.04785156 C336.20122934 191.51915737 338.26224276 194.64230339 342.39306641 197.71655273 C346.8648586 201.16518924 351.19199774 204.70492539 355.45556641 208.40405273 C359.57890502 211.96007702 363.72770924 215.47202751 367.95556641 218.90405273 C372.74739325 222.79653378 377.44224547 226.79090185 382.11914062 230.81982422 C385.54589253 233.77113183 388.98959373 236.6995937 392.45678711 239.60327148 C395.13722706 241.85369648 397.79856671 244.12603594 400.45556641 246.40405273 C400.97393066 246.84571777 401.49229492 247.28738281 402.02636719 247.74243164 C424.78711817 267.27915898 437.98914341 294.26883257 442.20556641 323.84155273 C442.30473847 325.36143542 442.38422642 326.88260964 442.45556641 328.40405273 C442.50422852 329.43933105 442.55289062 330.47460938 442.60302734 331.54125977 C442.95781704 347.59649028 440.91072507 363.50976061 439.21063232 379.44818115 C438.53719746 385.76725305 437.87445151 392.08740447 437.22084045 398.40855598 C436.99324478 400.58857254 436.75839856 402.76771722 436.52282715 404.94688416 C434.23470457 419.14985542 434.23470457 419.14985542 437.82666016 432.45874023 C438.3184375 433.25795898 438.81021484 434.05717773 439.31689453 434.88061523 C439.83703125 435.67209961 440.35716797 436.46358398 440.89306641 437.27905273 C441.91873031 438.89757854 442.93848731 440.51986605 443.95166016 442.14624023 C444.40726318 442.84604004 444.86286621 443.54583984 445.33227539 444.2668457 C447.13932454 447.70499137 447.75416718 450.33406663 446.70556641 454.09155273 C445.45556641 456.40405273 445.45556641 456.40405273 442.45556641 458.40405273 C436.20154624 458.85889056 436.20154624 458.85889056 433.54638672 457.23999023 C431.42080525 456.12374609 431.42080525 456.12374609 429.08740234 457.23999023 C428.21374023 457.74788086 427.34007812 458.25577148 426.43994141 458.77905273 C425.44865234 459.34495117 424.45736328 459.91084961 423.43603516 460.49389648 C422.36998047 461.12424805 421.30392578 461.75459961 420.20556641 462.40405273 C419.09310547 463.0447168 417.98064453 463.68538086 416.83447266 464.34545898 C413.36492097 466.34878205 409.90950292 468.37395168 406.45556641 470.40405273 C404.41952819 471.59227291 402.38308788 472.77980443 400.34619141 473.96655273 C397.40226836 475.68301121 394.45973414 477.4016035 391.52172852 479.12817383 C382.94804496 484.15770997 374.27819131 489.00704639 365.56298828 493.78686523 C364.57492187 494.33342773 363.58685547 494.87999023 362.56884766 495.44311523 C361.70042236 495.91958496 360.83199707 496.39605469 359.93725586 496.88696289 C357.21521425 498.55098321 354.80791091 500.24448094 352.45556641 502.40405273 C352.04827413 504.72561871 351.71117964 507.06093143 351.45556641 509.40405273 C350.39306641 511.34155273 350.39306641 511.34155273 348.45556641 512.40405273 C342.9603741 513.01462966 342.9603741 513.01462966 340.45556641 512.40405273 C337.53610292 509.81320099 335.66308571 507.30460341 333.89697266 503.84155273 C327.71498819 492.14421552 321.65715923 483.75200562 311.45556641 475.40405273 C293.53123567 458.98286998 279.49341994 436.30356254 271.45556641 413.40405273 C271.45556641 412.41405273 271.45556641 411.42405273 271.45556641 410.40405273 C270.79556641 410.71342773 270.13556641 411.02280273 269.45556641 411.34155273 C262.25079854 413.89324135 255.67025331 413.86082593 248.45556641 411.40405273 C243.5904022 408.87890663 239.61501689 406.60023046 237.45556641 401.40405273 C236.95669922 401.69280273 236.45783203 401.98155273 235.94384766 402.27905273 C228.46610884 406.14545988 220.77886301 407.01066659 212.64697266 404.55639648 C205.32190105 401.26736129 199.78546749 395.97345888 196.51806641 388.59155273 C194.54583603 382.25836576 194.81629528 375.85788407 196.34619141 369.45874023 C198.3892774 362.0417 198.3892774 362.0417 197.45947266 354.62670898 C195.96631436 352.34930415 195.96631436 352.34930415 194.26416016 350.49389648 C191.83482538 347.68678179 190.24060075 344.65773678 188.45556641 341.40405273 C188.43369263 342.55236572 188.43369263 342.55236572 188.41137695 343.72387695 C188.33621938 347.24273842 188.23978405 350.76072043 188.14306641 354.27905273 C188.10922852 356.0850293 188.10922852 356.0850293 188.07470703 357.92749023 C187.64036106 372.45833733 183.57163821 384.41438084 172.78759766 394.57983398 C167.08771861 399.03853334 160.98896845 402.25182611 153.75415039 402.97460938 C152.94791733 403.05723526 152.14168427 403.13986115 151.3110199 403.22499084 C150.69872025 403.28408127 150.08642059 403.34317169 149.45556641 403.40405273 C149.46444885 404.53300461 149.4733313 405.66195648 149.48248291 406.82511902 C149.56356192 417.4632779 149.62352861 428.10137411 149.66281509 438.73977184 C149.6836917 444.20913252 149.71201106 449.6782438 149.75732422 455.14746094 C149.8007788 460.42536687 149.82470296 465.70303288 149.83507538 470.9811039 C149.8424674 472.99496551 149.85690227 475.00881396 149.87848663 477.02257347 C149.90751524 479.84297456 149.91152261 482.66238376 149.90966797 485.48291016 C149.92404907 486.31585098 149.93843018 487.14879181 149.95324707 488.00697327 C149.92476246 492.00906154 149.75247213 493.93685585 147.55218506 497.39912415 C144.34118984 500.469695 142.10867147 500.71739546 137.67529297 500.66235352 C133.86800427 500.21931442 130.71836146 498.55503289 127.33056641 496.84155273 C120.7067471 493.46871661 120.7067471 493.46871661 113.45556641 494.40405273 C110.33727622 495.83455549 107.30588081 497.34173869 104.28564453 498.96459961 C99.3177399 501.45629009 94.98654881 502.30449972 89.45556641 501.40405273 C86.26783742 500.31765945 83.32290582 498.8787837 80.33056641 497.34155273 C74.62593368 494.41175409 70.93941533 492.57678622 64.45556641 494.40405273 C61.07973005 495.74544179 57.83720736 497.33576342 54.59228516 498.96459961 C48.76762065 501.70662004 43.40272335 502.75026851 37.16992188 500.62451172 C34.84654198 499.60185711 32.58842589 498.50146511 30.33056641 497.34155273 C24.6389551 494.41844167 20.9340842 492.57266961 14.45556641 494.40405273 C11.40665937 495.7748924 11.40665937 495.7748924 8.51806641 497.46655273 C3.34601372 500.1397485 0.22337342 501.49794717 -5.54443359 500.40405273 C-9.05109524 498.37832259 -11.23622483 496.32867903 -12.54443359 492.40405273 C-12.63592825 489.55884869 -12.67041134 486.73860327 -12.65795898 483.89355469 C-12.65810501 483.02504883 -12.65825104 482.15654297 -12.65840149 481.26171875 C-12.65770435 478.38856516 -12.6499212 475.51547626 -12.64208984 472.64233398 C-12.64022496 470.65122005 -12.63880139 468.66010565 -12.63780212 466.66899109 C-12.6339825 461.42632787 -12.62415691 456.18369232 -12.61309814 450.94104004 C-12.60287213 445.5921262 -12.59830195 440.2432079 -12.59326172 434.89428711 C-12.58253417 424.39753016 -12.56546437 413.90079375 -12.54443359 403.40405273 C-13.16262466 403.3420166 -13.78081573 403.27998047 -14.41773987 403.21606445 C-15.22855515 403.13114746 -16.03937042 403.04623047 -16.87475586 402.95874023 C-17.67857193 402.8760791 -18.482388 402.79341797 -19.31056213 402.70825195 C-28.08879311 401.51286938 -35.95494625 394.90171474 -41.54443359 388.40405273 C-49.59481268 375.93414945 -50.85255581 363.49253592 -50.79840088 348.85534668 C-50.80152086 347.54274006 -50.80464084 346.23013345 -50.80785537 344.87775087 C-50.81613798 341.26808972 -50.81210815 337.65853548 -50.80588293 334.04887414 C-50.80133244 330.1428815 -50.80835501 326.23690644 -50.81384277 322.33091736 C-50.82271084 314.69238221 -50.82082633 307.0538865 -50.81501749 299.41534984 C-50.8104908 293.20435125 -50.80989245 286.99336366 -50.81206512 280.78236389 C-50.81237159 279.89656349 -50.81267806 279.01076308 -50.81299381 278.09812024 C-50.8136333 276.29833042 -50.81428172 274.49854061 -50.81493899 272.69875079 C-50.82063471 255.84349627 -50.81409631 238.98826354 -50.80333826 222.13301259 C-50.79440344 207.68737834 -50.7959557 193.24177625 -50.80517578 178.79614258 C-50.81589182 161.99897276 -50.82008546 145.20182202 -50.81395125 128.40464926 C-50.81331419 126.61168003 -50.81268545 124.81871081 -50.81206512 123.02574158 C-50.81175657 122.14369058 -50.81144802 121.26163958 -50.81113012 120.35285977 C-50.80940718 114.153209 -50.81230962 107.95357039 -50.81702423 101.75392151 C-50.8226479 94.19306824 -50.82108545 86.63225646 -50.81046274 79.07140791 C-50.80522599 75.21775761 -50.80311504 71.36417637 -50.80976105 67.51052666 C-50.81687072 63.32454456 -50.80835067 59.1387351 -50.79840088 54.95275879 C-50.80286232 53.74690392 -50.80732377 52.54104905 -50.8119204 51.29865313 C-50.74235014 36.16322329 -48.2561079 22.52369005 -37.52099609 11.15014648 C-26.30982668 1.24620829 -14.33035055 -0.04437948 0 0 Z " fill="#F4F3F4" transform="translate(57.54443359375,-0.404052734375)"/>
<path d="M0 0 C1.66819209 -0.00570985 3.33638028 -0.01267648 5.00456238 -0.02079773 C9.51501151 -0.03867739 14.02526555 -0.03757044 18.53573942 -0.03185534 C22.3103819 -0.02875565 26.08498732 -0.03486468 29.85962451 -0.04089409 C38.76956644 -0.05492096 47.67941245 -0.05339364 56.58935547 -0.04199219 C65.76039588 -0.03051546 74.93114369 -0.04458334 84.10214555 -0.07138866 C91.9954481 -0.09358988 99.88865911 -0.10017301 107.78199065 -0.09431225 C112.48777185 -0.09095171 117.19336559 -0.09329731 121.89912033 -0.11056328 C126.32668801 -0.12610078 130.75382444 -0.12200194 135.1813755 -0.10325813 C136.79899454 -0.09959086 138.41664601 -0.10262594 140.034235 -0.11314392 C153.6518999 -0.1948759 164.17930309 1.86597091 174.45556641 11.40405273 C185.19966123 22.02049494 187.71710442 33.01649142 187.86962891 47.77905273 C187.89867813 49.52665894 187.89867813 49.52665894 187.92831421 51.30957031 C187.98779164 55.00765812 188.03436804 58.70577759 188.08056641 62.40405273 C188.11877546 64.92099292 188.15782887 67.43792044 188.19775391 69.95483398 C188.29346693 76.1044606 188.37860655 82.25416436 188.45556641 88.40405273 C189.15939453 87.99678955 189.86322266 87.58952637 190.58837891 87.16992188 C196.86274598 83.54076161 203.14044772 79.91751162 209.423172 76.30284119 C212.78607013 74.36758655 216.1439893 72.4240515 219.49853516 70.47436523 C220.87976112 69.67959984 222.26124465 68.88528179 223.64306641 68.09155273 C224.24570312 67.73778564 224.84833984 67.38401855 225.46923828 67.01953125 C233.97512137 62.1702586 242.81645606 60.99223654 252.35791016 63.02124023 C264.43430217 66.84910082 270.68521118 75.41158647 276.51806641 86.15405273 C277.48852524 87.88788659 278.4590089 89.62170695 279.43074036 91.35482788 C280.43959638 93.159599 281.44089619 94.96839737 282.44091797 96.77807617 C285.36871178 102.06440007 288.38607023 107.29908472 291.39523315 112.53942871 C293.07510447 115.46811894 294.74754904 118.40104202 296.42041016 121.33374023 C300.09751896 127.77775323 303.77809278 134.21978147 307.45959473 140.6612854 C308.45023621 142.39472586 309.44069477 144.12827086 310.43115234 145.86181641 C313.5318688 151.2888343 316.63330103 156.71543847 319.73727417 162.14059448 C321.19011998 164.67999515 322.64256 167.2196278 324.0949707 169.75927734 C324.78194329 170.96023921 325.46911076 172.16108962 326.15649414 173.36181641 C327.11476512 175.03576112 328.07228578 176.71013529 329.02978516 178.38452148 C329.62057861 179.41407959 330.21137207 180.4436377 330.82006836 181.50439453 C331.85436301 183.33814846 332.86643721 185.18477216 333.84692383 187.04785156 C336.20122934 191.51915737 338.26224276 194.64230339 342.39306641 197.71655273 C346.8648586 201.16518924 351.19199774 204.70492539 355.45556641 208.40405273 C359.57890502 211.96007702 363.72770924 215.47202751 367.95556641 218.90405273 C372.74739325 222.79653378 377.44224547 226.79090185 382.11914062 230.81982422 C385.54589253 233.77113183 388.98959373 236.6995937 392.45678711 239.60327148 C395.13722706 241.85369648 397.79856671 244.12603594 400.45556641 246.40405273 C400.97393066 246.84571777 401.49229492 247.28738281 402.02636719 247.74243164 C424.78711817 267.27915898 437.98914341 294.26883257 442.20556641 323.84155273 C442.30473847 325.36143542 442.38422642 326.88260964 442.45556641 328.40405273 C442.50422852 329.43933105 442.55289062 330.47460938 442.60302734 331.54125977 C442.95781704 347.59649028 440.91072507 363.50976061 439.21063232 379.44818115 C438.53719746 385.76725305 437.87445151 392.08740447 437.22084045 398.40855598 C436.99324478 400.58857254 436.75839856 402.76771722 436.52282715 404.94688416 C434.23470457 419.14985542 434.23470457 419.14985542 437.82666016 432.45874023 C438.3184375 433.25795898 438.81021484 434.05717773 439.31689453 434.88061523 C439.83703125 435.67209961 440.35716797 436.46358398 440.89306641 437.27905273 C441.91873031 438.89757854 442.93848731 440.51986605 443.95166016 442.14624023 C444.40726318 442.84604004 444.86286621 443.54583984 445.33227539 444.2668457 C447.13932454 447.70499137 447.75416718 450.33406663 446.70556641 454.09155273 C445.45556641 456.40405273 445.45556641 456.40405273 442.45556641 458.40405273 C436.13298576 458.85566564 436.13298576 458.85566564 432.45556641 456.40405273 C431.13134766 454.07592773 431.13134766 454.07592773 429.76806641 451.15405273 C427.81527778 447.00191125 425.69877241 443.25529202 423.11795044 439.46403503 C419.40704587 433.77906432 417.88887671 429.56007249 418.54150391 422.78295898 C418.59878159 422.0245018 418.65605927 421.26604462 418.71507263 420.48460388 C418.93188873 417.7875488 419.18915984 415.09666097 419.45556641 412.40405273 C419.55993011 411.34250977 419.66429382 410.2809668 419.77182007 409.18725586 C420.77489037 399.14815592 421.83827213 389.11487987 422.94702148 379.08691406 C427.1739072 340.65117868 428.27031068 305.79406501 404.45556641 273.40405273 C399.07322866 266.77323459 393.20999064 261.14227698 386.51806641 255.85717773 C382.85286581 252.92127725 379.30881269 249.86297092 375.76806641 246.77905273 C375.12708008 246.22145264 374.48609375 245.66385254 373.82568359 245.08935547 C372.03426015 243.52916574 370.24453715 241.96705372 368.45556641 240.40405273 C367.55322266 239.61643555 366.65087891 238.82881836 365.72119141 238.01733398 C363.96423075 236.481551 362.20862817 234.94428272 360.45556641 233.40405273 C361.36997939 236.14729169 362.40841337 238.14725785 363.88916016 240.60717773 C364.37320312 241.4231543 364.85724609 242.23913086 365.35595703 243.07983398 C366.37279501 244.78274688 367.39357154 246.48331476 368.41845703 248.18139648 C373.85334077 257.37667123 375.7312457 265.70443628 374.45556641 276.40405273 C369.9111329 290.97043087 358.08527645 297.61944686 345.39306641 304.40405273 C344.13270774 305.08916079 342.87293758 305.77535263 341.61376953 306.46264648 C338.56769735 308.12229397 335.51399561 309.76726403 332.45556641 311.40405273 C333.00280324 314.77867988 333.5104664 316.48640273 335.45556641 319.40405273 C335.79943083 322.63637832 335.72055396 324.7747073 334.45556641 327.77905273 C331.89730424 329.85764074 329.72546576 329.88544157 326.49072266 329.93530273 C322.74907236 328.95859556 320.81553261 325.97121066 318.81152344 322.8137207 C318.28413574 321.85095215 317.75674805 320.88818359 317.21337891 319.89624023 C316.62169922 318.82631836 316.03001953 317.75639648 315.42041016 316.65405273 C314.81326172 315.54030273 314.20611328 314.42655273 313.58056641 313.27905273 C312.37633338 311.08812555 311.1706204 308.89801113 309.96337891 306.70874023 C309.38015869 305.64840576 308.79693848 304.58807129 308.19604492 303.49560547 C306.09023093 299.75511976 303.86345043 296.09966279 301.5847168 292.46240234 C299.971471 289.52158607 299.6222252 287.66165927 300.45556641 284.40405273 C302.74571357 281.39414504 304.24692255 279.7062137 307.95556641 278.77905273 C312.80690522 279.99188744 314.76103328 283.3151292 317.32666016 287.33764648 C322.45556641 295.93398231 322.45556641 295.93398231 322.45556641 298.40405273 C330.19342329 294.81821662 337.59929744 290.70918734 344.95556641 286.40405273 C345.82793945 285.90615234 346.7003125 285.40825195 347.59912109 284.89526367 C352.41103047 282.03953665 356.19613114 279.72627803 358.45556641 274.40405273 C360.26829983 265.06128221 356.52947377 258.55245455 351.83056641 250.71655273 C351.14297563 249.53109671 350.45754657 248.34438447 349.77416992 247.15649414 C348.0282876 244.13405516 346.25593303 241.12816739 344.47479248 238.12640381 C342.9139731 235.48883497 341.37460976 232.83889346 339.83447266 230.18920898 C338.11395603 227.2316006 336.39104102 224.27560423 334.65820312 221.32519531 C330.49644528 214.23594077 326.45262602 207.08728736 322.45556641 199.90405273 C317.8799024 191.68202684 313.21985893 183.51823843 308.45556641 175.40405273 C303.08359847 166.25491985 297.86480115 157.03002142 292.70556641 147.75952148 C288.15084017 139.59558138 283.46269063 131.51650293 278.72314453 123.45874023 C273.75053512 114.97901485 268.95646996 106.40456474 264.24853516 97.77514648 C258.76858744 86.70983091 258.76858744 86.70983091 249.45556641 79.40405273 C239.99181063 77.91080346 233.64199665 80.65454848 225.70556641 85.52905273 C224.09101562 86.47651367 224.09101562 86.47651367 222.44384766 87.44311523 C220.20362874 88.76058353 217.96990051 90.08914849 215.74267578 91.4284668 C211.65381866 93.88591123 207.53335982 96.28645139 203.40966797 98.68481445 C201.43046568 99.83667747 199.45326596 100.99198791 197.47802734 102.15063477 C189.31866622 106.93357074 181.07502438 111.55496308 172.81103516 116.15405273 C164.64881837 120.70781752 156.56832405 125.39000204 148.5168457 130.13647461 C143.24284948 133.23457167 137.93853877 136.25569672 132.56884766 139.18530273 C131.43253906 139.80791992 130.29623047 140.43053711 129.12548828 141.07202148 C126.9438303 142.26247825 124.75658399 143.44277036 122.56298828 144.61108398 C116.36503041 147.99913923 111.69503217 150.92512121 108.45556641 157.40405273 C106.15619861 172.22220073 120.04344178 188.7656436 127.18603516 200.83764648 C128.27650391 202.69274798 129.36637723 204.54819966 130.45556641 206.40405273 C130.96297363 207.25773438 131.47038086 208.11141602 131.99316406 208.9909668 C132.45126465 209.78083984 132.90936523 210.57071289 133.38134766 211.38452148 C133.78393799 212.07054443 134.18652832 212.75656738 134.60131836 213.46337891 C136.03018355 216.70946332 135.50712291 219.11793867 134.45556641 222.40405273 C133.33056641 224.34155273 133.33056641 224.34155273 131.45556641 225.40405273 C128.08056641 225.96655273 128.08056641 225.96655273 124.45556641 225.40405273 C120.78312233 221.51988305 118.12134825 217.41492642 115.46728516 212.76342773 C115.11922318 212.15517151 114.77116119 211.54691528 114.41255188 210.92022705 C113.68631576 209.64791069 112.96296708 208.37394208 112.24243164 207.09838867 C111.13571266 205.14104691 110.01801951 203.19027807 108.89892578 201.23999023 C103.45556641 191.67941046 103.45556641 191.67941046 103.45556641 189.40405273 C102.87357168 189.40773991 102.29157696 189.41142708 101.69194603 189.41522598 C87.51974819 189.50362798 73.34759178 189.56978703 59.17517662 189.61130142 C52.32143618 189.63191201 45.46787998 189.66000347 38.61425781 189.70581055 C32.0007023 189.74999197 25.38728795 189.77318782 18.77357864 189.78356171 C16.24978243 189.79095505 13.72599673 189.80539236 11.20228195 189.82697296 C7.66847812 189.8559904 4.13546622 189.86000926 0.6015625 189.8581543 C-0.44285004 189.8725354 -1.48726257 189.8869165 -2.56332397 189.9017334 C-8.39849736 189.86856865 -12.00279067 189.45475687 -16.54443359 185.40405273 C-19.39014176 182.4271686 -19.92541623 180.42717069 -19.96435547 176.34765625 C-19.98026733 175.34303848 -19.9961792 174.33842072 -20.01257324 173.30335999 C-20.01287537 171.68451149 -20.01287537 171.68451149 -20.01318359 170.03295898 C-20.02460388 168.36123878 -20.02460388 168.36123878 -20.03625488 166.65574646 C-20.04705664 164.29965454 -20.0499087 161.94351473 -20.04541016 159.58740234 C-20.04443807 155.98315562 -20.08605734 152.38103883 -20.13037109 148.77709961 C-20.13557823 146.48739051 -20.13826629 144.19767401 -20.13818359 141.90795898 C-20.15457886 140.83075089 -20.17097412 139.75354279 -20.18786621 138.64369202 C-20.11916855 131.20378695 -20.11916855 131.20378695 -17.23388672 127.18896484 C-14.54443359 125.40405273 -14.54443359 125.40405273 -10.91943359 125.34155273 C-7.54443359 126.40405273 -7.54443359 126.40405273 -4.54443359 130.40405273 C-4.54443359 144.92405273 -4.54443359 159.44405273 -4.54443359 174.40405273 C28.12556641 174.40405273 60.79556641 174.40405273 94.45556641 174.40405273 C93.79556641 172.42405273 93.13556641 170.44405273 92.45556641 168.40405273 C91.16980134 158.884446 92.93996136 151.28348852 98.45556641 143.40405273 C103.74634806 136.87346939 110.44475524 133.25685764 117.76806641 129.34155273 C119.93161429 128.16461376 122.09438465 126.98624426 124.25634766 125.80639648 C125.20678955 125.29584717 126.15723145 124.78529785 127.13647461 124.25927734 C131.63564829 121.74443948 136.03577691 119.05592643 140.45556641 116.40405273 C140.78556641 101.88405273 141.11556641 87.36405273 141.45556641 72.40405273 C93.27556641 72.40405273 45.09556641 72.40405273 -4.54443359 72.40405273 C-4.54443359 82.63405273 -4.54443359 92.86405273 -4.54443359 103.40405273 C-8.54443359 108.40405273 -8.54443359 108.40405273 -12.04443359 109.02905273 C-15.54443359 108.40405273 -15.54443359 108.40405273 -17.72998047 106.40185547 C-20.0740525 102.52902709 -20.12093315 99.20997279 -20.07568359 94.81420898 C-20.0795105 93.99206406 -20.0833374 93.16991913 -20.08728027 92.32286072 C-20.08999483 90.5889259 -20.08266553 88.85494981 -20.06591797 87.12109375 C-20.04452744 84.47814818 -20.06571903 81.83792907 -20.09130859 79.19506836 C-20.0886647 77.50560927 -20.08353844 75.81615188 -20.07568359 74.12670898 C-20.08378052 73.34215836 -20.09187744 72.55760773 -20.10021973 71.74928284 C-20.01184021 66.53287961 -18.99572025 63.5370702 -15.54443359 59.40405273 C-11.95484423 57.01099316 -10.37126172 57.15079073 -6.10513306 57.14335632 C-5.12040199 57.137618 -5.12040199 57.137618 -4.11577737 57.13176376 C-1.91173933 57.12142907 0.29203842 57.12542672 2.49609375 57.12939453 C4.07461285 57.12504826 5.65312984 57.1198654 7.23164368 57.11390686 C11.5230109 57.10049529 15.81429017 57.09994066 20.10567427 57.10247016 C23.68671875 57.10353857 27.26774534 57.09865975 30.848786 57.09386474 C39.29715344 57.08276174 47.74547644 57.08233637 56.19384766 57.08837891 C64.91154115 57.0944182 73.62907322 57.08211064 82.34673917 57.06080884 C89.82877964 57.04319804 97.31076872 57.03719072 104.79282916 57.04044658 C109.26262016 57.04226067 113.73229607 57.03961087 118.20206833 57.02573204 C122.40622266 57.01316705 126.61012533 57.01508512 130.81427574 57.02814293 C132.35700884 57.0305113 133.89975957 57.02776467 135.44247246 57.01951981 C137.54937382 57.00907205 139.65542772 57.01713617 141.76229858 57.02983093 C143.5304445 57.02957932 143.5304445 57.02957932 145.33431053 57.02932262 C149.55890078 57.53651628 152.10151586 59.21527411 155.24975586 61.97924805 C157.20728138 65.91570148 156.8214246 69.87041772 156.74853516 74.20092773 C156.74429031 75.14969788 156.74004547 76.09846802 156.735672 77.07598877 C156.71889723 80.10230039 156.68124697 83.12794284 156.64306641 86.15405273 C156.62801803 88.20742852 156.61432989 90.26081477 156.60205078 92.31420898 C156.56899758 97.34441421 156.51722324 102.37412007 156.45556641 107.40405273 C161.07556641 104.76405273 165.69556641 102.12405273 170.45556641 99.40405273 C170.56891143 91.0845277 170.66047818 82.76561145 170.71462727 74.44551945 C170.74062734 70.58138714 170.77584641 66.7178143 170.83276367 62.85400391 C170.88743082 59.11920682 170.91705892 55.38494493 170.92995262 51.64977837 C170.93913089 50.23088604 170.95705327 48.81202021 170.98421669 47.39335823 C171.16053231 37.79580595 170.46322452 30.73901976 163.72895813 23.56459045 C155.44661026 15.54521727 145.49670763 15.95610667 134.68310547 15.96826172 C133.08564553 15.95927463 131.48819207 15.94906421 129.89074707 15.93772888 C125.56820373 15.91131944 121.24583877 15.90419921 116.92322254 15.90228152 C114.21745024 15.90014353 111.51172274 15.8937283 108.80596161 15.88578987 C99.35156902 15.85806503 89.89730299 15.84578059 80.44287109 15.84814453 C71.65403984 15.84994547 62.86576181 15.81830942 54.07707047 15.77091354 C46.51157753 15.73157984 38.94626462 15.71559733 31.38067031 15.71751076 C26.87089414 15.71827266 22.36160991 15.70988992 17.85193634 15.67797661 C13.60643343 15.64875087 9.36188655 15.6488175 5.11634827 15.6705265 C3.56686238 15.6736418 2.01731504 15.66670831 0.46793365 15.64844513 C-9.26562239 15.54123154 -17.42103315 16.55555895 -25.54443359 22.40405273 C-30.62014688 28.19346777 -33.78785485 34.38220905 -33.80728912 42.1551218 C-33.81497141 43.3106806 -33.8226537 44.46623939 -33.83056879 45.65681511 C-33.82796934 47.55454647 -33.82796934 47.55454647 -33.82531738 49.49061584 C-33.83048687 50.85169115 -33.8365138 52.21276342 -33.84332418 53.5738315 C-33.85944563 57.31330369 -33.86304228 61.05269905 -33.86451912 64.79220188 C-33.86822356 68.8258036 -33.88332008 72.85936561 -33.89678955 76.89294434 C-33.92394554 85.71341508 -33.93600438 94.53386763 -33.94481087 103.35437322 C-33.95033836 108.86405971 -33.95881364 114.37373919 -33.96781921 119.88342094 C-33.99220476 135.14363826 -34.01280231 150.40384996 -34.0195694 165.66408634 C-34.02000853 166.64067132 -34.02044766 167.61725629 -34.0209001 168.62343475 C-34.02155493 170.09178741 -34.02155493 170.09178741 -34.022223 171.58980376 C-34.02310992 173.57337829 -34.02400305 175.55695282 -34.02490234 177.54052734 C-34.0253452 178.5244456 -34.02578806 179.50836386 -34.02624434 180.52209782 C-34.03413652 196.45697875 -34.06903278 212.39167655 -34.11562139 228.32648677 C-34.16308742 244.69380991 -34.18797492 261.06104125 -34.19030523 277.42843431 C-34.19213675 286.61514696 -34.20359054 295.80162108 -34.23994446 304.9882679 C-34.27079954 312.81286727 -34.28095658 320.63715442 -34.26446825 328.46180309 C-34.25667314 332.45130975 -34.25842392 336.44018823 -34.28658295 340.42961693 C-34.312173 344.08869709 -34.30957194 347.74668074 -34.28540152 351.40576058 C-34.27967435 353.34224675 -34.30327662 355.27875286 -34.32824564 357.21508652 C-34.22564398 366.35302377 -32.17604728 374.87299528 -25.43207026 381.47055489 C-19.87621193 385.9106505 -14.87954427 387.65154112 -7.74641418 387.67147827 C-6.73991028 387.67827494 -6.73991028 387.67827494 -5.71307296 387.68520892 C-3.47164923 387.69783741 -1.23046897 387.69623356 1.01098633 387.69458008 C2.62109692 387.70056645 4.23120464 387.70737225 5.84130859 387.7149353 C10.21139466 387.73259506 14.58140238 387.73729077 18.95152068 387.73856688 C21.68455489 387.73998946 24.41756925 387.74426119 27.15059853 387.74956131 C36.69342943 387.76806408 46.23620449 387.77623193 55.77905273 387.7746582 C64.66032188 387.77345791 73.54134757 387.79453747 82.42255515 387.82614553 C90.05758018 387.8523455 97.69252591 387.86302388 105.32759553 387.86174738 C109.88307237 387.86123869 114.43833299 387.86687024 118.99376488 387.88810349 C123.28255125 387.90754775 127.57091661 387.90756835 131.85971832 387.89307022 C133.42777182 387.89098841 134.9958521 387.89564536 136.56385994 387.90779114 C145.91636406 387.97550273 155.12225223 388.02311457 162.55297947 381.58753109 C170.36051094 373.64431809 172.09930214 364.02956095 172.33837891 353.27514648 C172.38730789 351.56399155 172.38730789 351.56399155 172.43722534 349.81826782 C172.51967829 346.15893176 172.5575225 342.5017231 172.58056641 338.84155273 C172.59313477 337.60460663 172.60570312 336.36766052 172.61865234 335.0932312 C172.70559479 315.46485421 171.02758564 300.42248207 157.45556641 285.40405273 C157.4462207 285.97849121 157.436875 286.55292969 157.42724609 287.14477539 C157.37321609 289.77370577 157.28963746 292.4009184 157.20556641 295.02905273 C157.19138672 295.93268555 157.17720703 296.83631836 157.16259766 297.76733398 C156.92191296 304.36209468 155.67551746 308.34716036 150.73925781 313.03344727 C146.2548796 315.72484124 140.76312303 314.9218872 135.66601562 314.9050293 C133.59314266 314.90405862 131.52399725 314.9456569 129.45166016 314.98999023 C118.28424675 315.01186568 118.28424675 315.01186568 114.63525391 312.12280273 C109.61183165 305.85702874 110.05652748 300.34947017 110.01806641 292.52905273 C109.98519531 291.35729492 109.95232422 290.18553711 109.91845703 288.97827148 C109.85826809 279.33709745 109.85826809 279.33709745 112.67041016 275.70874023 C117.25368355 271.91612972 120.88971528 271.15225952 126.77978516 271.20874023 C127.9728125 271.21518555 129.16583984 271.22163086 130.39501953 271.22827148 C131.631875 271.2450293 132.86873047 271.26178711 134.14306641 271.27905273 C136.01575195 271.29258789 136.01575195 271.29258789 137.92626953 271.30639648 C141.10286685 271.33050075 144.27911876 271.36566488 147.45556641 271.40405273 C148.11556641 271.40405273 148.77556641 271.40405273 149.45556641 271.40405273 C148.91814819 270.46553467 148.91814819 270.46553467 148.36987305 269.50805664 C146.75204411 266.68204219 145.1350452 263.85555369 143.51806641 261.02905273 C142.95410156 260.04420898 142.39013672 259.05936523 141.80908203 258.04467773 C141.27089844 257.10366211 140.73271484 256.16264648 140.17822266 255.19311523 C139.6807251 254.32380371 139.18322754 253.45449219 138.6706543 252.55883789 C136.59415336 248.8764595 136.02589032 246.70081357 136.45556641 242.40405273 C138.54667304 239.34781996 139.7486349 238.5394226 143.39306641 237.84155273 C147.48577895 238.59327545 148.70435457 240.33227 151.45556641 243.40405273 C153.23803711 246.09765625 153.23803711 246.09765625 154.88134766 249.03295898 C155.50460938 250.13575195 156.12787109 251.23854492 156.77001953 252.37475586 C157.436101 253.57198486 158.10211474 254.76925153 158.76806641 255.96655273 C159.47357568 257.22029843 160.1799728 258.47354489 160.88720703 259.72631836 C162.35435193 262.32677792 163.81767117 264.92933397 165.27832031 267.53344727 C168.63512705 273.51065556 172.04823369 279.45554408 175.45556641 285.40405273 C176.78298802 287.72532533 178.10954024 290.04709423 179.43603516 292.36889648 C179.76505829 292.94465424 180.09408142 293.52041199 180.43307495 294.11361694 C183.18192362 298.92403923 185.92845322 303.73578363 188.67407227 308.54804993 C190.37517983 311.52896482 192.07807351 314.50883044 193.78515625 317.48632812 C196.78088735 322.71302585 199.76435139 327.9445878 202.69384766 333.20874023 C203.43284302 334.52249634 203.43284302 334.52249634 204.18676758 335.86279297 C205.07814345 337.44803368 205.9607135 339.03827892 206.83178711 340.63476562 C209.77532275 345.8339487 212.9886378 349.67058843 218.45556641 352.40405273 C231.01708995 354.35325466 243.50951204 344.60339476 253.75878906 338.19921875 C258.25742302 335.40405273 258.25742302 335.40405273 260.45556641 335.40405273 C261.868726 313.81975035 258.2631535 300.63874117 246.36328125 282.34350586 C243.72092587 278.27210085 241.27199863 274.09783023 238.83056641 269.90405273 C238.43248779 269.22793945 238.03440918 268.55182617 237.62426758 267.85522461 C231.90680768 258.12609345 227.51346259 250.05667565 229.45556641 238.40405273 C232.02524943 230.80358183 235.69011514 224.79795872 242.45556641 220.40405273 C243.00341797 219.99413086 243.55126953 219.58420898 244.11572266 219.16186523 C250.74103366 214.93913954 258.94438571 215.55033928 266.45556641 216.40405273 C277.59230114 219.66851713 283.57939327 227.98797313 288.94970703 237.75952148 C289.54976563 238.8797168 290.14982422 239.99991211 290.76806641 241.15405273 C291.99259899 243.39924151 293.21782701 245.64405118 294.44384766 247.88842773 C294.97534424 248.87552734 295.50684082 249.86262695 296.05444336 250.87963867 C297.48027011 253.52909337 297.48027011 253.52909337 299.45556641 256.40405273 C299.91223704 259.98130604 299.89334072 261.73863578 297.89306641 264.77905273 C294.52045862 267.02745793 292.43044258 266.97189219 288.45556641 266.40405273 C285.26448904 263.72033205 283.35045132 260.79339199 281.36181641 257.15795898 C280.80623047 256.15571289 280.25064453 255.1534668 279.67822266 254.12084961 C278.82550781 252.55947266 278.82550781 252.55947266 277.95556641 250.96655273 C276.82440488 248.90301658 275.68911513 246.84173695 274.54931641 244.78295898 C273.80198242 243.41506226 273.80198242 243.41506226 273.03955078 242.01953125 C270.53191063 237.87891027 268.17871992 234.02623639 263.45556641 232.40405273 C258.93834433 231.83848184 254.78399535 231.89529271 250.51806641 233.52905273 C246.87659446 236.83948178 245.65898569 239.99141882 244.96337891 244.82202148 C245.08108811 251.29602782 248.96429879 256.60127715 252.14306641 262.02905273 C252.82376157 263.21989566 253.50302575 264.41155761 254.1809082 265.60400391 C259.1348958 274.28142655 264.21952238 282.89074174 269.41723633 291.42407227 C270.17290894 292.67679932 270.17290894 292.67679932 270.94384766 293.95483398 C271.38253174 294.67324463 271.82121582 295.39165527 272.27319336 296.13183594 C274.79573049 300.97950332 275.71452773 305.45256603 275.89453125 310.88647461 C275.94153168 312.15640259 275.9885321 313.42633057 276.03695679 314.73474121 C276.05787762 315.40773758 276.07879845 316.08073395 276.10035324 316.77412415 C276.16783414 318.91500534 276.24775523 321.05511003 276.33096313 323.19543457 C276.56547561 329.27918984 276.77999424 335.36356653 276.98193359 341.44848633 C277.70597126 362.98700584 278.4862818 384.50414635 286.01806641 404.96655273 C286.35612305 405.9050708 286.69417969 406.84358887 287.04248047 407.81054688 C295.48637942 430.4064962 309.02051129 452.67182743 327.79931641 468.22436523 C338.2576646 477.0083294 344.15545046 487.29944366 350.37084961 499.38549805 C351.29707652 501.34161499 351.29707652 501.34161499 352.45556641 502.40405273 C352.21349574 505.6720067 351.98459817 508.43934776 350.39306641 511.34155273 C347.26528655 513.05678685 343.86851439 513.23599975 340.45556641 512.40405273 C337.53610292 509.81320099 335.66308571 507.30460341 333.89697266 503.84155273 C327.71498819 492.14421552 321.65715923 483.75200562 311.45556641 475.40405273 C293.53123567 458.98286998 279.49341994 436.30356254 271.45556641 413.40405273 C271.45556641 412.41405273 271.45556641 411.42405273 271.45556641 410.40405273 C270.79556641 410.71342773 270.13556641 411.02280273 269.45556641 411.34155273 C262.25079854 413.89324135 255.67025331 413.86082593 248.45556641 411.40405273 C243.5904022 408.87890663 239.61501689 406.60023046 237.45556641 401.40405273 C236.95669922 401.69280273 236.45783203 401.98155273 235.94384766 402.27905273 C228.46610884 406.14545988 220.77886301 407.01066659 212.64697266 404.55639648 C205.32190105 401.26736129 199.78546749 395.97345888 196.51806641 388.59155273 C194.54583603 382.25836576 194.81629528 375.85788407 196.34619141 369.45874023 C198.3892774 362.0417 198.3892774 362.0417 197.45947266 354.62670898 C195.96631436 352.34930415 195.96631436 352.34930415 194.26416016 350.49389648 C191.83482538 347.68678179 190.24060075 344.65773678 188.45556641 341.40405273 C188.43369263 342.55236572 188.43369263 342.55236572 188.41137695 343.72387695 C188.33621938 347.24273842 188.23978405 350.76072043 188.14306641 354.27905273 C188.10922852 356.0850293 188.10922852 356.0850293 188.07470703 357.92749023 C187.64036106 372.45833733 183.57163821 384.41438084 172.78759766 394.57983398 C167.08771861 399.03853334 160.98896845 402.25182611 153.75415039 402.97460938 C152.94791733 403.05723526 152.14168427 403.13986115 151.3110199 403.22499084 C150.69872025 403.28408127 150.08642059 403.34317169 149.45556641 403.40405273 C149.46444885 404.53300461 149.4733313 405.66195648 149.48248291 406.82511902 C149.56356192 417.4632779 149.62352861 428.10137411 149.66281509 438.73977184 C149.6836917 444.20913252 149.71201106 449.6782438 149.75732422 455.14746094 C149.8007788 460.42536687 149.82470296 465.70303288 149.83507538 470.9811039 C149.8424674 472.99496551 149.85690227 475.00881396 149.87848663 477.02257347 C149.90751524 479.84297456 149.91152261 482.66238376 149.90966797 485.48291016 C149.92404907 486.31585098 149.93843018 487.14879181 149.95324707 488.00697327 C149.92476246 492.00906154 149.75247213 493.93685585 147.55218506 497.39912415 C144.34118984 500.469695 142.10867147 500.71739546 137.67529297 500.66235352 C133.86800427 500.21931442 130.71836146 498.55503289 127.33056641 496.84155273 C120.7067471 493.46871661 120.7067471 493.46871661 113.45556641 494.40405273 C110.33727622 495.83455549 107.30588081 497.34173869 104.28564453 498.96459961 C99.3177399 501.45629009 94.98654881 502.30449972 89.45556641 501.40405273 C86.26783742 500.31765945 83.32290582 498.8787837 80.33056641 497.34155273 C74.62593368 494.41175409 70.93941533 492.57678622 64.45556641 494.40405273 C61.07973005 495.74544179 57.83720736 497.33576342 54.59228516 498.96459961 C48.76762065 501.70662004 43.40272335 502.75026851 37.16992188 500.62451172 C34.84654198 499.60185711 32.58842589 498.50146511 30.33056641 497.34155273 C24.6389551 494.41844167 20.9340842 492.57266961 14.45556641 494.40405273 C11.40665937 495.7748924 11.40665937 495.7748924 8.51806641 497.46655273 C3.34601372 500.1397485 0.22337342 501.49794717 -5.54443359 500.40405273 C-9.05109524 498.37832259 -11.23622483 496.32867903 -12.54443359 492.40405273 C-12.63592825 489.55884869 -12.67041134 486.73860327 -12.65795898 483.89355469 C-12.65810501 483.02504883 -12.65825104 482.15654297 -12.65840149 481.26171875 C-12.65770435 478.38856516 -12.6499212 475.51547626 -12.64208984 472.64233398 C-12.64022496 470.65122005 -12.63880139 468.66010565 -12.63780212 466.66899109 C-12.6339825 461.42632787 -12.62415691 456.18369232 -12.61309814 450.94104004 C-12.60287213 445.5921262 -12.59830195 440.2432079 -12.59326172 434.89428711 C-12.58253417 424.39753016 -12.56546437 413.90079375 -12.54443359 403.40405273 C-13.16262466 403.3420166 -13.78081573 403.27998047 -14.41773987 403.21606445 C-15.22855515 403.13114746 -16.03937042 403.04623047 -16.87475586 402.95874023 C-17.67857193 402.8760791 -18.482388 402.79341797 -19.31056213 402.70825195 C-28.08879311 401.51286938 -35.95494625 394.90171474 -41.54443359 388.40405273 C-49.59481268 375.93414945 -50.85255581 363.49253592 -50.79840088 348.85534668 C-50.80152086 347.54274006 -50.80464084 346.23013345 -50.80785537 344.87775087 C-50.81613798 341.26808972 -50.81210815 337.65853548 -50.80588293 334.04887414 C-50.80133244 330.1428815 -50.80835501 326.23690644 -50.81384277 322.33091736 C-50.82271084 314.69238221 -50.82082633 307.0538865 -50.81501749 299.41534984 C-50.8104908 293.20435125 -50.80989245 286.99336366 -50.81206512 280.78236389 C-50.81237159 279.89656349 -50.81267806 279.01076308 -50.81299381 278.09812024 C-50.8136333 276.29833042 -50.81428172 274.49854061 -50.81493899 272.69875079 C-50.82063471 255.84349627 -50.81409631 238.98826354 -50.80333826 222.13301259 C-50.79440344 207.68737834 -50.7959557 193.24177625 -50.80517578 178.79614258 C-50.81589182 161.99897276 -50.82008546 145.20182202 -50.81395125 128.40464926 C-50.81331419 126.61168003 -50.81268545 124.81871081 -50.81206512 123.02574158 C-50.81175657 122.14369058 -50.81144802 121.26163958 -50.81113012 120.35285977 C-50.80940718 114.153209 -50.81230962 107.95357039 -50.81702423 101.75392151 C-50.8226479 94.19306824 -50.82108545 86.63225646 -50.81046274 79.07140791 C-50.80522599 75.21775761 -50.80311504 71.36417637 -50.80976105 67.51052666 C-50.81687072 63.32454456 -50.80835067 59.1387351 -50.79840088 54.95275879 C-50.80286232 53.74690392 -50.80732377 52.54104905 -50.8119204 51.29865313 C-50.74235014 36.16322329 -48.2561079 22.52369005 -37.52099609 11.15014648 C-26.30982668 1.24620829 -14.33035055 -0.04437948 0 0 Z " fill="#020202" transform="translate(57.54443359375,-0.404052734375)"/>
<path d="M0 0 C0.66933347 -0.00538554 1.33866694 -0.01077108 2.02828324 -0.01631981 C4.25213028 -0.03053039 6.47537623 -0.02351319 8.69924927 -0.01637268 C10.30142695 -0.02207994 11.90360057 -0.02904557 13.50576782 -0.03717041 C17.84472108 -0.05507902 22.18347184 -0.05393762 26.52245092 -0.04822803 C30.15054781 -0.04513244 33.77860602 -0.05123284 37.40669739 -0.05726677 C45.96941684 -0.07130323 54.53203649 -0.06975841 63.09475708 -0.05836487 C71.91475293 -0.04688799 80.73444456 -0.06095404 89.55440032 -0.08776134 C97.13935445 -0.10994789 104.72421329 -0.11654897 112.30919755 -0.11068493 C116.83385957 -0.10732079 121.35832667 -0.10969407 125.88296127 -0.12693596 C130.13978106 -0.14244991 134.39615177 -0.13840054 138.6529541 -0.11963081 C140.21013429 -0.11595702 141.76734809 -0.11901798 143.32449722 -0.1295166 C153.64708464 -0.19376931 162.27425498 0.55255812 170.3052063 7.63768005 C170.92008911 8.1584613 171.53497192 8.67924255 172.16848755 9.21580505 C178.59561373 16.86780111 178.71363735 24.48346973 178.84036255 34.10643005 C178.85919904 35.15612221 178.85919904 35.15612221 178.87841606 36.22702026 C178.94388301 39.92562698 178.98608816 43.62362977 179.00857544 47.32273865 C179.03616424 51.12480116 179.14279401 54.92034908 179.267663 58.72028351 C179.34999736 61.66313522 179.37369246 64.60443459 179.38186455 67.54833984 C179.39573211 68.94882608 179.43119151 70.34928436 179.48945808 71.74862671 C179.66433956 76.25405304 179.56878475 80.14182133 177.9927063 84.38768005 C174.03762926 88.03112893 168.59505752 92.38768005 162.9927063 92.38768005 C162.9833606 91.11126648 162.97401489 89.83485291 162.96438599 88.51976013 C162.9244629 83.77640603 162.85869726 79.03369893 162.78518677 74.29075623 C162.75699066 72.23940859 162.73576937 70.18795258 162.72171021 68.13645935 C162.70026206 65.18447952 162.65360182 62.23380075 162.6020813 59.2822113 C162.60023834 57.91006218 162.60023834 57.91006218 162.59835815 56.51019287 C162.50265292 52.33364689 162.3445778 49.96873225 160.14212036 46.33177185 C156.50032222 43.03785561 153.27578148 43.256118 148.55340576 43.23377991 C147.89691839 43.22939765 147.24043101 43.2250154 146.56405008 43.22050035 C144.36009012 43.20712543 142.15617013 43.20093652 139.95217896 43.19480896 C138.37366048 43.18690713 136.7951438 43.17863813 135.21662903 43.17002869 C130.03002647 43.1438238 124.84341588 43.12850525 119.6567688 43.11424255 C117.87166717 43.10888275 116.0865656 43.10350524 114.30146408 43.0981102 C106.87764752 43.07648611 99.45383313 43.05774812 92.02999306 43.04648781 C81.38700592 43.03023865 70.74438326 42.99703223 60.10153353 42.94008696 C52.61950344 42.90141637 45.13757097 42.8818587 37.65544355 42.87656724 C33.18553151 42.87291058 28.71600836 42.86085574 24.24620438 42.82846451 C20.04195494 42.79843336 15.83833072 42.79205403 11.63399696 42.80384827 C10.09124104 42.8040694 8.54845651 42.79573118 7.00580025 42.77819443 C4.89843692 42.75554234 2.79334867 42.76377516 0.68597412 42.77967834 C-0.49278982 42.7763682 -1.67155376 42.77305805 -2.88603783 42.7696476 C-6.93416719 43.57120807 -8.41300192 45.25759701 -11.0072937 48.38768005 C-12.62853169 51.63015603 -12.19168225 55.19116712 -12.2104187 58.75486755 C-12.21611877 59.58600067 -12.22181885 60.41713379 -12.22769165 61.27345276 C-12.23714516 63.03368353 -12.24367702 64.79393202 -12.24752808 66.55418396 C-12.25723028 69.24509119 -12.28824826 71.93523354 -12.3197937 74.6259613 C-12.32632413 76.33559218 -12.33157445 78.04522853 -12.3354187 79.75486755 C-12.3477655 80.55915192 -12.3601123 81.36343628 -12.37283325 82.1920929 C-12.35974216 85.48125236 -12.23490728 87.94910131 -10.70553589 90.89598083 C-8.93751478 92.72327699 -8.93751478 92.72327699 -5.5072937 92.88768005 C-4.3522937 92.72268005 -3.1972937 92.55768005 -2.0072937 92.38768005 C5.03827228 82.99359208 1.61410936 69.12418521 1.9927063 57.38768005 C50.1727063 57.38768005 98.3527063 57.38768005 147.9927063 57.38768005 C147.9927063 71.90768005 147.9927063 86.42768005 147.9927063 101.38768005 C138.80561166 107.04127675 129.63912281 112.45349949 120.1489563 117.54197693 C111.15006986 122.5083435 104.90515949 127.73820117 100.86380005 137.3447113 C98.75921668 144.69659669 99.75497811 151.96131094 100.9927063 159.38768005 C68.3227063 159.38768005 35.6527063 159.38768005 1.9927063 159.38768005 C1.6627063 144.86768005 1.3327063 130.34768005 0.9927063 115.38768005 C-0.3272937 114.06768005 -1.6472937 112.74768005 -3.0072937 111.38768005 C-6.63379321 111.29851851 -6.63379321 111.29851851 -10.0072937 112.38768005 C-12.17197149 115.63469673 -12.26543602 116.57418742 -12.29782104 120.33055115 C-12.31058075 121.33524445 -12.32334045 122.33993774 -12.33648682 123.37507629 C-12.33871246 124.45946991 -12.34093811 125.54386353 -12.3432312 126.66111755 C-12.349888 127.77701263 -12.3565448 128.89290771 -12.36340332 130.0426178 C-12.3735346 132.40469208 -12.37822019 134.76679501 -12.37789917 137.12889099 C-12.3822683 140.74167629 -12.41857358 144.3532363 -12.45651245 147.96580505 C-12.46238127 150.26007171 -12.46635023 152.55434417 -12.4682312 154.84861755 C-12.48260223 155.92896271 -12.49697327 157.00930786 -12.51177979 158.12239075 C-12.49021761 164.07648797 -12.49021761 164.07648797 -10.22848511 169.48387146 C-6.62763863 172.57019822 -3.93831712 173.63483188 0.80160522 173.66615295 C1.76631744 173.67731644 2.73102966 173.68847992 3.72497559 173.69998169 C4.77657867 173.70214188 5.82818176 173.70430206 6.91165161 173.70652771 C8.02414276 173.71657333 9.13663391 173.72661896 10.28283691 173.73696899 C13.96216309 173.76787426 17.64141626 173.78485676 21.3208313 173.80174255 C23.87102897 173.82044827 26.42122041 173.84002123 28.97140503 173.86042786 C34.99904504 173.90656463 41.02667797 173.94395021 47.0543983 173.97710073 C53.91778021 174.01533513 60.78106749 174.06474181 67.6443696 174.11508489 C81.76041162 174.2183774 95.87651462 174.30764649 109.9927063 174.38768005 C110.38538696 175.09787292 110.77806763 175.8080658 111.18264771 176.53977966 C112.99035608 179.80380086 114.80398522 183.06449639 116.6177063 186.32518005 C117.54389771 188.00063904 117.54389771 188.00063904 118.48880005 189.70994568 C123.88603393 200.13924748 123.88603393 200.13924748 130.9927063 209.38768005 C133.66329481 209.52883167 136.31702868 209.43015113 138.9927063 209.38768005 C139.40262817 210.21912537 139.81255005 211.05057068 140.2348938 211.9072113 C140.77372192 212.99389099 141.31255005 214.08057068 141.8677063 215.20018005 C142.40137817 216.27912537 142.93505005 217.35807068 143.4848938 218.4697113 C144.96491769 221.4660627 144.96491769 221.4660627 146.9927063 224.38768005 C146.4977063 224.75893005 146.0027063 225.13018005 145.4927063 225.51268005 C143.33782285 228.20628436 143.72071861 229.99736387 143.9927063 233.38768005 C145.04975707 236.0952299 145.04975707 236.0952299 146.6177063 238.6806488 C147.42981567 240.12020935 147.42981567 240.12020935 148.2583313 241.58885193 C148.83067505 242.57434021 149.4030188 243.55982849 149.9927063 244.57518005 C151.12322618 246.54467808 152.24849269 248.51720382 153.3677063 250.4931488 C153.87044067 251.36092957 154.37317505 252.22871033 154.8911438 253.12278748 C155.9927063 255.38768005 155.9927063 255.38768005 155.9927063 258.38768005 C155.3327063 258.05768005 154.6727063 257.72768005 153.9927063 257.38768005 C149.58144762 257.11538014 145.16140823 257.15599592 140.7427063 257.13768005 C139.51422974 257.11705505 138.28575317 257.09643005 137.02005005 257.07518005 C135.83024536 257.0700238 134.64044067 257.06486755 133.4145813 257.05955505 C132.32757935 257.05020935 131.24057739 257.04086365 130.12063599 257.03123474 C125.60345047 257.54599363 122.39058657 259.01029981 119.14480591 262.20848083 C116.73371626 266.76906278 117.52492067 272.22425304 117.5552063 277.26268005 C117.53522583 278.43443787 117.51524536 279.60619568 117.49465942 280.8134613 C117.49602921 289.41781841 117.49602921 289.41781841 121.9927063 296.38768005 C126.75764738 299.56430744 132.19026003 298.75959002 137.76174927 298.75828552 C139.85389068 298.76265122 141.94390791 298.79895627 144.03567505 298.8368988 C145.37290745 298.84276904 146.71014983 298.84673705 148.0473938 298.84861755 C149.25895142 298.85683533 150.47050903 298.8650531 151.71878052 298.8735199 C155.64391276 298.29104315 157.22796455 297.19062416 159.9927063 294.38768005 C161.96799596 291.41162694 162.27742969 288.93857401 162.4067688 285.40330505 C162.46477661 284.00144958 162.46477661 284.00144958 162.5239563 282.5712738 C162.5548938 281.60318787 162.5858313 280.63510193 162.6177063 279.63768005 C162.65637817 278.65412537 162.69505005 277.67057068 162.7348938 276.6572113 C162.82899056 274.23421969 162.91462958 271.81123209 162.9927063 269.38768005 C172.80945995 278.62695737 179.50893852 292.437294 180.33538818 305.77394104 C180.42641288 310.54884702 180.37533762 315.29974432 180.19314575 320.07200623 C180.05356082 323.74346055 180.00850315 327.4071898 179.97903442 331.08103943 C179.93815669 333.45027833 179.89212355 335.81943518 179.84036255 338.1884613 C179.82022598 339.26775406 179.80008942 340.34704681 179.77934265 341.45904541 C179.37873063 351.32723373 176.74370013 359.4275681 169.9302063 366.6962738 C164.21573752 371.68491288 157.88699481 373.5083453 150.42173767 373.53485107 C149.75103278 373.53852776 149.0803279 373.54220445 148.38929862 373.54599255 C146.13705765 373.55702431 143.88486282 373.56087238 141.63259888 373.56468201 C140.01953993 373.5709471 138.40648243 373.57759394 136.79342651 373.58459473 C131.49137375 373.60563404 126.1893207 373.61599775 120.88723755 373.6259613 C119.06134209 373.63000906 117.23544677 373.63412599 115.40955162 373.63831139 C106.83026495 373.65736364 98.25098689 373.67159398 89.67168313 373.67992336 C79.77259354 373.68969297 69.87372772 373.71600512 59.97471696 373.75642425 C52.32108968 373.78660115 44.66752647 373.80139377 37.01384085 373.80470437 C32.44385234 373.80705328 27.87410287 373.81599289 23.30417824 373.84116554 C19.00231107 373.86447853 14.70083979 373.86866661 10.39892578 373.85840416 C8.82357655 373.85790945 7.24820762 373.86421071 5.67291832 373.87796021 C-2.44678897 373.94484177 -9.03110641 373.96360499 -16.0072937 369.38768005 C-17.0385437 368.72768005 -18.0697937 368.06768005 -19.1322937 367.38768005 C-25.17273549 361.95407154 -28.29082109 353.71459084 -28.76234055 345.77527618 C-28.79496387 343.33684638 -28.79541561 340.89784239 -28.76919556 338.45933533 C-28.77612482 337.09220692 -28.7856647 335.72508973 -28.79755902 334.35799551 C-28.82241986 330.63404407 -28.81031355 326.9110247 -28.79164171 323.18707156 C-28.77799473 319.15832382 -28.79905554 315.12972979 -28.81552124 311.10101318 C-28.84213069 303.22174576 -28.83646993 295.34282224 -28.81904539 287.46354163 C-28.80546721 281.05705621 -28.80366939 274.65066683 -28.81018829 268.24417114 C-28.81110769 267.33061713 -28.81202709 266.41706311 -28.81297435 265.47582564 C-28.8148928 263.61966579 -28.81683808 261.76350598 -28.8188099 259.90734619 C-28.83589855 242.5226751 -28.81627964 225.13819418 -28.7840077 207.75355428 C-28.75720296 192.85301795 -28.76185969 177.95276211 -28.78952026 163.05223083 C-28.82166591 145.72764233 -28.83425079 128.40322029 -28.81584668 111.07860613 C-28.81393549 109.2294671 -28.81204926 107.38032804 -28.81018829 105.53118896 C-28.80926264 104.62149686 -28.80833699 103.71180476 -28.80738328 102.77454624 C-28.80221367 96.37949269 -28.81092339 89.98454518 -28.82506561 83.58950806 C-28.84193402 75.79065004 -28.83725556 67.99215412 -28.80538115 60.19333732 C-28.78966637 56.21799166 -28.78334377 52.24324861 -28.80327606 48.2679081 C-28.8212794 44.62200608 -28.81113079 40.97725978 -28.77941075 37.33146125 C-28.76963289 35.40230963 -28.78901186 33.47307648 -28.80975413 31.54401159 C-28.68799128 22.4428495 -26.61851667 13.96235936 -19.95362926 7.35029078 C-13.93536821 2.47804254 -7.72278958 0.01575283 0 0 Z " fill="#C5BEC5" transform="translate(51.007293701171875,14.612319946289063)"/>
<path d="M0 0 C4.70202737 2.547926 7.13990552 5.161755 9.8125 9.75 C10.48152344 10.884375 11.15054687 12.01875 11.83984375 13.1875 C13.3913936 15.90684443 14.91813925 18.63972923 16.44140625 21.375 C16.84705811 22.10235352 17.25270996 22.82970703 17.6706543 23.57910156 C18.46420678 25.00952294 19.25101197 26.44371151 20.03051758 27.88183594 C21.85984405 31.5631679 21.85984405 31.5631679 25 34 C26.216875 33.773125 27.43375 33.54625 28.6875 33.3125 C30.82421875 33.24609375 30.82421875 33.24609375 33 34 C36.03172812 37.7825501 40 42.98268168 40 48 C40.99 48.495 40.99 48.495 42 49 C41.34 49.53625 40.68 50.0725 40 50.625 C37.7652234 52.83897651 37.7652234 52.83897651 37.66723633 55.74658203 C38.07120028 59.69612247 39.32150915 62.00852881 41.32421875 65.4296875 C41.6674971 66.02371368 42.01077545 66.61773987 42.36445618 67.22976685 C43.46015486 69.11879992 44.57351517 70.99670518 45.6875 72.875 C46.41717471 74.12823211 47.14570129 75.38213344 47.87304688 76.63671875 C50.83769728 81.73139461 53.84170104 86.7921025 57.01953125 91.7578125 C59 95 59 95 59 97 C60.62418745 97.08090971 62.24951745 97.13914995 63.875 97.1875 C64.77992188 97.22230469 65.68484375 97.25710938 66.6171875 97.29296875 C67.40351563 97.19628906 68.18984375 97.09960938 69 97 C71.33909307 93.4913604 71.41291057 92.12910567 71 88 C70.00585407 86.32983484 69.0064275 84.66279327 68 83 C68.05249023 81.06567383 68.05249023 81.06567383 69 79 C71.46508789 77.2800293 71.46508789 77.2800293 74.72265625 75.57421875 C75.30156113 75.26353958 75.880466 74.95286041 76.47691345 74.63276672 C78.33228105 73.63817633 80.19613883 72.66128509 82.0625 71.6875 C94.65824064 65.09178546 105.41050328 59.2896418 110 45 C111.75163164 31.76866677 107.6592905 22.42946166 100.8125 11.4375 C100.25369141 10.52419922 99.69488281 9.61089844 99.11914062 8.66992188 C97.75409557 6.44151498 96.38102145 4.21852762 95 2 C99.12744343 2 100.04694583 3.61750496 103 6.4375 C103.99139757 7.36811909 104.984941 8.29645674 105.98046875 9.22265625 C106.48497559 9.69203613 106.98948242 10.16141602 107.50927734 10.64501953 C109.70733801 12.64292924 112.00180247 14.5093257 114.3125 16.375 C116.20863928 17.91629036 118.10444993 19.45798506 120 21 C120.55623047 21.45101074 121.11246094 21.90202148 121.68554688 22.36669922 C142.93131461 39.69784622 159.78225822 63.4716166 162.77542114 91.36753845 C164.58442817 112.57230138 162.0500035 133.78140487 159.75506592 154.8369751 C159.07514029 161.10273628 158.42090086 167.37124078 157.76527405 173.63958168 C157.53730734 175.79811404 157.30290685 177.95586538 157.06726074 180.11357117 C155.14764187 192.8519555 155.14764187 192.8519555 158.87890625 204.70703125 C159.46994141 205.70541016 160.06097656 206.70378906 160.66992188 207.73242188 C161.29447266 208.74884766 161.91902344 209.76527344 162.5625 210.8125 C163.80189978 212.85528508 165.03283865 214.90323559 166.25390625 216.95703125 C167.07870483 218.30244995 167.07870483 218.30244995 167.92016602 219.67504883 C169 222 169 222 168 225 C165.97241211 226.40356445 165.97241211 226.40356445 163.27734375 227.86328125 C162.27638672 228.41306641 161.27542969 228.96285156 160.24414062 229.52929688 C159.15294922 230.11775391 158.06175781 230.70621094 156.9375 231.3125 C154.6330574 232.57750312 152.32969734 233.84448002 150.02734375 235.11328125 C149.4387558 235.43660431 148.85016785 235.75992737 148.2437439 236.0930481 C142.43418521 239.29170799 136.71381571 242.63427547 131 246 C121.43865206 251.61711285 111.79774064 257.07931919 102.10742188 262.47070312 C101.11935547 263.02048828 100.13128906 263.57027344 99.11328125 264.13671875 C98.24485596 264.61842529 97.37643066 265.10013184 96.48168945 265.59643555 C94.73369055 266.58504801 93.00983206 267.61695977 91.30541992 268.67895508 C89 270 89 270 87 270 C86.64284912 269.33991943 86.28569824 268.67983887 85.91772461 267.99975586 C84.27019419 264.97198407 82.60406198 261.9548351 80.9375 258.9375 C80.09541992 257.37999023 80.09541992 257.37999023 79.23632812 255.79101562 C75.80622563 249.61683114 72.34141941 244.63467519 67 240 C65.9171875 239.02546875 65.9171875 239.02546875 64.8125 238.03125 C64.214375 237.5259375 63.61625 237.020625 63 236.5 C35.02911857 212.86942776 18.28752035 175.88986504 14 140 C13.04352226 127.82559371 12.7930504 115.59793161 12.43218994 103.39428711 C12.29819744 98.89328641 12.14936701 94.39326686 11.9803009 89.89344215 C11.9082499 87.81929031 11.85763754 85.74536711 11.8079834 83.670578 C11.53320229 76.22351978 10.70900387 70.49805753 7 64 C6.48888672 63.01547852 5.97777344 62.03095703 5.45117188 61.01660156 C4.96197266 60.1500293 4.47277344 59.28345703 3.96875 58.390625 C3.13174561 56.90260376 3.13174561 56.90260376 2.27783203 55.38452148 C1.69114746 54.35012939 1.10446289 53.3157373 0.5 52.25 C-0.10859863 51.16468994 -0.71719727 50.07937988 -1.34423828 48.96118164 C-4.36145964 43.59475408 -7.42240915 38.26207135 -10.5859375 32.98046875 C-11.14087891 32.04364258 -11.69582031 31.10681641 -12.26757812 30.14160156 C-13.31123851 28.38589342 -14.36909495 26.63851832 -15.44335938 24.90136719 C-18.57569186 19.60991664 -19.71886461 16.15981234 -19 10 C-17.84247937 6.34637344 -15.71056371 3.64786691 -12.875 1.0625 C-8.62843887 -0.50688129 -4.45651599 -0.85109403 0 0 Z " fill="#FEE5C5" transform="translate(321,231)"/>
<path d="M0 0 C34.32 0 68.64 0 104 0 C108.62 8.25 113.24 16.5 118 25 C121.18994009 30.25418832 121.18994009 30.25418832 125 35 C127.67058851 35.14115161 130.32432238 35.04247107 133 35 C133.40992188 35.83144531 133.81984375 36.66289062 134.2421875 37.51953125 C134.78101563 38.60621094 135.31984375 39.69289062 135.875 40.8125 C136.40867188 41.89144531 136.94234375 42.97039062 137.4921875 44.08203125 C138.97221139 47.07838265 138.97221139 47.07838265 141 50 C140.505 50.37125 140.01 50.7425 139.5 51.125 C137.34511655 53.81860431 137.72801232 55.60968382 138 59 C139.05705077 61.70754985 139.05705077 61.70754985 140.625 64.29296875 C141.16640625 65.25267578 141.7078125 66.21238281 142.265625 67.20117188 C142.83796875 68.18666016 143.4103125 69.17214844 144 70.1875 C145.13051988 72.15699803 146.25578639 74.12952377 147.375 76.10546875 C147.87773437 76.97324951 148.38046875 77.84103027 148.8984375 78.73510742 C150 81 150 81 150 84 C149.34 83.67 148.68 83.34 148 83 C143.58874132 82.72770008 139.16870193 82.76831586 134.75 82.75 C133.52152344 82.729375 132.29304687 82.70875 131.02734375 82.6875 C129.83753906 82.68234375 128.64773437 82.6771875 127.421875 82.671875 C126.33487305 82.6625293 125.24787109 82.65318359 124.12792969 82.64355469 C119.61074417 83.15831357 116.39788027 84.62261976 113.15209961 87.82080078 C110.74100996 92.38138272 111.53221437 97.83657298 111.5625 102.875 C111.54251953 104.04675781 111.52253906 105.21851563 111.50195312 106.42578125 C111.50332292 115.03013836 111.50332292 115.03013836 116 122 C120.76494108 125.17662739 126.19755373 124.37190996 131.76904297 124.37060547 C133.86118438 124.37497117 135.95120161 124.41127621 138.04296875 124.44921875 C139.38020115 124.45508899 140.71744353 124.459057 142.0546875 124.4609375 C143.26624512 124.46915527 144.47780273 124.47737305 145.72607422 124.48583984 C149.65120646 123.9033631 151.23525825 122.80294411 154 120 C155.97528966 117.02394688 156.28472339 114.55089396 156.4140625 111.015625 C156.47207031 109.61376953 156.47207031 109.61376953 156.53125 108.18359375 C156.5621875 107.21550781 156.593125 106.24742187 156.625 105.25 C156.68300781 103.77466797 156.68300781 103.77466797 156.7421875 102.26953125 C156.83628426 99.84653963 156.92192328 97.42355204 157 95 C166.89148823 104.31879392 173.55464576 118.08462648 174.26531982 131.54098511 C174.33168954 137.60300949 174.13979797 143.63215807 173.875 149.6875 C173.81817308 152.19843817 173.76736187 154.7095199 173.72265625 157.22070312 C173.34697426 174.61210295 173.34697426 174.61210295 172 180 C165.73 180 159.46 180 153 180 C155 175 155 175 156 173 C156.29785272 168.73515989 156.27808765 164.4615133 156.3125 160.1875 C156.34150391 158.99833984 156.37050781 157.80917969 156.40039062 156.58398438 C156.40876953 155.43607422 156.41714844 154.28816406 156.42578125 153.10546875 C156.44036377 152.05512451 156.45494629 151.00478027 156.4699707 149.92260742 C155.87190705 146.20342819 154.6731186 144.62344194 152 142 C146.4193684 138.96294887 140.24621675 139.67048372 134.0625 139.6875 C132.89525391 139.67138672 131.72800781 139.65527344 130.52539062 139.63867188 C122.29565378 139.53949012 122.29565378 139.53949012 115 143 C111.97036859 146.2460662 111.6158875 148.51446133 111.6015625 152.90234375 C111.59769531 154.03994141 111.59382813 155.17753906 111.58984375 156.34960938 C111.60144531 157.53361328 111.61304688 158.71761719 111.625 159.9375 C111.61339844 161.11763672 111.60179687 162.29777344 111.58984375 163.51367188 C111.59371094 164.65255859 111.59757812 165.79144531 111.6015625 166.96484375 C111.60663818 168.52126587 111.60663818 168.52126587 111.61181641 170.10913086 C112.05352866 173.398637 113.23227618 175.23138522 115 178 C115 178.99 115 179.98 115 181 C106.09 181 97.18 181 88 181 C89 177 89 177 90.53515625 174.96484375 C92.83770554 170.30448398 92.47284458 165.68746447 92.4375 160.5625 C92.45748047 159.53833984 92.47746094 158.51417969 92.49804688 157.45898438 C92.49419492 151.50771752 92.22880056 147.56132163 88 143 C82.10910905 138.72644271 76.07756927 139.52322989 69.0625 139.5625 C67.79986328 139.54251953 66.53722656 139.52253906 65.23632812 139.50195312 C56.24484598 139.37249498 56.24484598 139.37249498 49 144 C45.94979079 148.89401221 46.67090633 154.29288789 46.6875 159.875 C46.67138672 160.95136719 46.65527344 162.02773438 46.63867188 163.13671875 C46.63514244 168.86146393 46.77745697 173.0560479 50 178 C50.33 178.66 50.66 179.32 51 180 C46.87501462 180.02892385 42.75005515 180.04677267 38.625 180.0625 C37.449375 180.07087891 36.27375 180.07925781 35.0625 180.08789062 C33.94101563 180.09111328 32.81953125 180.09433594 31.6640625 180.09765625 C30.62717285 180.10289307 29.5902832 180.10812988 28.52197266 180.11352539 C26 180 26 180 24 179 C25.875 174.25 25.875 174.25 27 172 C27.26855112 168.23499463 27.23160387 164.46100555 27.25 160.6875 C27.270625 159.64142578 27.29125 158.59535156 27.3125 157.51757812 C27.31765625 156.50501953 27.3228125 155.49246094 27.328125 154.44921875 C27.3374707 153.52455811 27.34681641 152.59989746 27.35644531 151.6472168 C26.93268374 148.50006148 25.71049305 146.64110289 24 144 C24 143.34 24 142.68 24 142 C16.05180937 138.79283536 8.48260844 138.32410493 0 138 C0 134.04 0 130.08 0 126 C0.97839844 125.97421875 1.95679688 125.9484375 2.96484375 125.921875 C14.15772052 125.70164655 14.15772052 125.70164655 24 121 C27.86011433 115.53591123 27.44775475 109.86012768 27.375 103.4375 C27.38660156 102.40947266 27.39820312 101.38144531 27.41015625 100.32226562 C27.38956497 95.02687389 27.35870306 91.34498888 24 87 C24 86.34 24 85.68 24 85 C16.05180937 81.79283536 8.48260844 81.32410493 0 81 C0 77.04 0 73.08 0 69 C0.97839844 68.97421875 1.95679688 68.9484375 2.96484375 68.921875 C14.15772052 68.70164655 14.15772052 68.70164655 24 64 C27.86011433 58.53591123 27.44775475 52.86012768 27.375 46.4375 C27.38660156 45.40947266 27.39820312 44.38144531 27.41015625 43.32226562 C27.4260854 36.15437649 27.4260854 36.15437649 24 30 C23.566875 29.443125 23.13375 28.88625 22.6875 28.3125 C18.2085307 24.82885721 12.58905996 24.63001364 7.125 24.375 C4.77375 24.25125 2.4225 24.1275 0 24 C0 16.08 0 8.16 0 0 Z " fill="#D3CED3" transform="translate(57,189)"/>
<path d="M0 0 C48.18 0 96.36 0 146 0 C146 14.52 146 29.04 146 44 C136.81290536 49.6535967 127.64641652 55.06581943 118.15625 60.15429688 C109.15736356 65.12066345 102.91245319 70.35052111 98.87109375 79.95703125 C96.76651038 87.30891664 97.76227181 94.57363088 99 102 C66.33 102 33.66 102 0 102 C-0.33 87.48 -0.66 72.96 -1 58 C-4.47825081 53.9254644 -4.47825081 53.9254644 -8 53 C-8.16236745 50.41414795 -8.28095486 47.83848046 -8.375 45.25 C-8.42527344 44.52039063 -8.47554687 43.79078125 -8.52734375 43.0390625 C-8.5859375 40.890625 -8.5859375 40.890625 -8 37 C-5.0390625 34.609375 -5.0390625 34.609375 -2 33 C2.92837589 23.14324822 -0.35530498 11.01445427 0 0 Z " fill="#CEEEFB" transform="translate(53,72)"/>
<path d="M0 0 C43.23 0 86.46 0 131 0 C131 26.07 131 52.14 131 79 C125 77 125 77 121.6875 75.375 C116.65370037 73.49798997 111.94133243 72.98029506 106.7746582 74.77148438 C104.57763127 75.80187586 102.44314751 76.90120986 100.3125 78.0625 C93.02331604 82.01053607 93.02331604 82.01053607 88.96484375 81.96875 C85.94353892 80.98155158 83.1528766 79.79885028 80.29321289 78.42016602 C70.54494748 73.57463998 70.54494748 73.57463998 60 74 C56.29747952 75.57255606 52.68283842 77.31581645 49.15063477 79.24047852 C44.32611654 81.7842746 41.45870647 82.54673381 36 81 C32.13224461 79.42358789 28.40352857 77.5791192 24.671875 75.70703125 C19.6734776 73.33534269 16.54930577 72.50724344 11 74 C8.44395633 74.91662641 8.44395633 74.91662641 6.1875 76.0625 C2.18149466 78 2.18149466 78 0 78 C0 52.26 0 26.52 0 0 Z " fill="#F4F2F3" transform="translate(61,403)"/>
<path d="M0 0 C19.14132233 -0.0935473 38.2825981 -0.16403009 57.42410183 -0.20724869 C66.31235342 -0.22785151 75.20046277 -0.25592837 84.08862305 -0.30175781 C91.83785842 -0.34169556 99.58699074 -0.36744939 107.33632618 -0.37635398 C111.43749157 -0.38155702 115.53836222 -0.39373812 119.63943291 -0.42292023 C123.50460343 -0.45019924 127.36935958 -0.45842002 131.23461723 -0.45243073 C132.6482977 -0.45352541 134.06199293 -0.46140498 135.47558975 -0.4768219 C145.47911839 -0.58051194 153.59483907 0.4412713 161.3125 7.25 C161.92738281 7.77078125 162.54226562 8.2915625 163.17578125 8.828125 C169.60290744 16.48012106 169.72093105 24.09578967 169.84765625 33.71875 C169.86649274 34.76844215 169.86649274 34.76844215 169.88570976 35.83934021 C169.95117671 39.53794693 169.99338186 43.23594971 170.01586914 46.93505859 C170.04345794 50.73712111 170.15008772 54.53266903 170.2749567 58.33260345 C170.35729106 61.27545517 170.38098617 64.21675454 170.38915825 67.16065979 C170.40302581 68.56114603 170.43848521 69.9616043 170.49675179 71.36094666 C170.67163326 75.86637299 170.57607845 79.75414127 169 84 C165.04492296 87.64344887 159.60235122 92 154 92 C153.9906543 90.72358643 153.98130859 89.44717285 153.97167969 88.13208008 C153.93175661 83.38872598 153.86599097 78.64601888 153.79248047 73.90307617 C153.76428436 71.85172854 153.74306307 69.80027253 153.72900391 67.7487793 C153.70755576 64.79679946 153.66089552 61.8461207 153.609375 58.89453125 C153.60753204 57.52238213 153.60753204 57.52238213 153.60565186 56.12251282 C153.51230763 52.04900047 153.33940625 49.58877477 151.27441406 46.0065918 C147.11298838 42.3351923 143.26164517 41.74941919 137.81803894 41.7215271 C136.57428497 41.71036362 135.33053101 41.69920013 134.04908752 41.68769836 C132.67880279 41.68533365 131.30851773 41.68315796 129.93823242 41.68115234 C128.4892318 41.67185 127.04023652 41.66168087 125.59124756 41.65071106 C121.66399427 41.62343142 117.7367768 41.60826771 113.80945373 41.59528303 C109.7027868 41.57964358 105.59619295 41.55285595 101.48957825 41.5272522 C93.71596744 41.48047884 85.94234287 41.44372775 78.16866332 41.41057932 C69.31740097 41.37234775 60.46621203 41.32294029 51.61501157 41.27259517 C33.41006146 41.16929677 15.20506653 41.08002956 -3 41 C-3.07468636 36.44681299 -3.12885256 31.89399002 -3.16479492 27.34033203 C-3.1797933 25.79437032 -3.20019887 24.24845052 -3.22631836 22.70263672 C-3.48676127 6.8820065 -3.48676127 6.8820065 0 0 Z " fill="#D5D0D5" transform="translate(60,15)"/>
<path d="M0 0 C-0.13921875 0.91265625 -0.13921875 0.91265625 -0.28125 1.84375 C-1.47559611 16.34652415 9.69634222 30.15567931 16.81103516 42.04760742 C17.97789047 44.00872407 19.12223356 45.98338183 20.24560547 47.96972656 C21.95332571 51.01027943 21.95332571 51.01027943 23.93017578 53.80371094 C31.27665897 65.68611247 30.35582236 79.40661909 30.69647217 92.95623779 C30.8540331 98.97211898 31.07637644 104.9861641 31.296875 111 C31.34304459 112.28881577 31.38921417 113.57763153 31.43678284 114.90550232 C32.98779487 153.09454357 44.08617556 190.05043042 70 219 C70.85207031 219.97195313 71.70414062 220.94390625 72.58203125 221.9453125 C77.15181442 227.0862154 81.80282715 231.73026442 87.0625 236.1875 C94.05989014 242.24545208 99.40743603 250.47429114 103 259 C103 259.99 103 260.98 103 262 C100.71125827 263.33858524 98.41930344 264.67101014 96.125 266 C95.47402344 266.3815625 94.82304687 266.763125 94.15234375 267.15625 C89.2265625 270 89.2265625 270 87 270 C86.64284912 269.33991943 86.28569824 268.67983887 85.91772461 267.99975586 C84.27019419 264.97198407 82.60406198 261.9548351 80.9375 258.9375 C80.09541992 257.37999023 80.09541992 257.37999023 79.23632812 255.79101562 C75.80622563 249.61683114 72.34141941 244.63467519 67 240 C65.9171875 239.02546875 65.9171875 239.02546875 64.8125 238.03125 C64.214375 237.5259375 63.61625 237.020625 63 236.5 C35.02911857 212.86942776 18.28752035 175.88986504 14 140 C13.04352226 127.82559371 12.7930504 115.59793161 12.43218994 103.39428711 C12.29819744 98.89328641 12.14936701 94.39326686 11.9803009 89.89344215 C11.9082499 87.81929031 11.85763754 85.74536711 11.8079834 83.670578 C11.53320229 76.22351978 10.70900387 70.49805753 7 64 C6.48888672 63.01547852 5.97777344 62.03095703 5.45117188 61.01660156 C4.96197266 60.1500293 4.47277344 59.28345703 3.96875 58.390625 C3.13174561 56.90260376 3.13174561 56.90260376 2.27783203 55.38452148 C1.69114746 54.35012939 1.10446289 53.3157373 0.5 52.25 C-0.10859863 51.16468994 -0.71719727 50.07937988 -1.34423828 48.96118164 C-4.36145964 43.59475408 -7.42240915 38.26207135 -10.5859375 32.98046875 C-11.14087891 32.04364258 -11.69582031 31.10681641 -12.26757812 30.14160156 C-13.31123851 28.38589342 -14.36909495 26.63851832 -15.44335938 24.90136719 C-18.57569186 19.60991664 -19.71886461 16.15981234 -19 10 C-17.84247937 6.34637344 -15.71056371 3.64786691 -12.875 1.0625 C-8.60753298 -0.51460738 -4.49940921 -0.23589136 0 0 Z " fill="#F6D1A8" transform="translate(321,231)"/>
<path d="M0 0 C4.29 0 8.58 0 13 0 C13.00879936 1.43033821 13.00879936 1.43033821 13.01777649 2.88957214 C13.07501083 11.87974383 13.14777614 20.8696738 13.23571491 29.85959911 C13.28042607 34.48133282 13.31968055 39.10297822 13.34643555 43.72485352 C13.3724611 48.18595208 13.41285817 52.64671098 13.46318626 57.10759926 C13.47986005 58.80877772 13.49137115 60.51001494 13.49761391 62.21126366 C13.50724957 64.59587514 13.53530134 66.97961666 13.56762695 69.36401367 C13.56547432 70.4170594 13.56547432 70.4170594 13.5632782 71.49137878 C13.64694399 75.86054737 14.54431601 78.41936125 17 82 C17 82.66 17 83.32 17 84 C18.175625 84.4640625 18.175625 84.4640625 19.375 84.9375 C22 86 22 86 24 87 C26.30724017 87.12120299 28.61796828 87.1775357 30.92822266 87.20532227 C31.64052536 87.21522186 32.35282806 87.22512146 33.0867157 87.23532104 C35.44579726 87.26695858 37.80489897 87.2917023 40.1640625 87.31640625 C41.79788747 87.33697384 43.43170708 87.35797026 45.06552124 87.37937927 C49.36942216 87.43462013 53.67337126 87.4840205 57.97735596 87.53222656 C62.36776018 87.5824269 66.75809429 87.63812061 71.1484375 87.69335938 C79.76556737 87.8009656 88.38275668 87.90189755 97 88 C97.99 94.93 97.99 94.93 99 102 C66.33 102 33.66 102 0 102 C-0.33 87.48 -0.66 72.96 -1 58 C-4.47825081 53.9254644 -4.47825081 53.9254644 -8 53 C-8.16236745 50.41414795 -8.28095486 47.83848046 -8.375 45.25 C-8.42527344 44.52039063 -8.47554687 43.79078125 -8.52734375 43.0390625 C-8.5859375 40.890625 -8.5859375 40.890625 -8 37 C-5.0390625 34.609375 -5.0390625 34.609375 -2 33 C-0.5235764 30.0471528 -0.77727061 27.31551017 -0.68359375 24.0234375 C-0.66281265 23.33819 -0.64203156 22.6529425 -0.62062073 21.94692993 C-0.55519815 19.75638931 -0.49627446 17.56572811 -0.4375 15.375 C-0.39430782 13.8906125 -0.3506933 12.40623722 -0.30664062 10.921875 C-0.19952447 7.28137916 -0.09823638 3.64074749 0 0 Z " fill="#A7E1F6" transform="translate(53,72)"/>
<path d="M0 0 C1.22009766 -0.00386719 2.44019531 -0.00773437 3.69726562 -0.01171875 C5.59702148 0.00568359 5.59702148 0.00568359 7.53515625 0.0234375 C8.79779297 0.01183594 10.06042969 0.00023437 11.36132812 -0.01171875 C12.58271484 -0.00785156 13.80410156 -0.00398438 15.0625 0 C16.17230225 0.00338379 17.28210449 0.00676758 18.42553711 0.01025391 C23.59615115 0.64300049 26.72261756 2.29005516 29.94140625 6.3671875 C32.44311116 11.3083142 32.18095525 16.47706114 32.09765625 21.8984375 C32.113125 22.90519531 32.12859375 23.91195313 32.14453125 24.94921875 C32.111386 31.27167519 31.56192962 35.37702457 27.59765625 40.3984375 C21.07979021 44.34318661 15.00994866 43.87770759 7.59765625 43.8359375 C6.33953125 43.85591797 5.08140625 43.87589844 3.78515625 43.89648438 C-7.85671412 43.89031813 -7.85671412 43.89031813 -12.40234375 39.3984375 C-16.38230298 33.77903545 -15.88192227 28.6284698 -15.83984375 21.9609375 C-15.85982422 20.84138672 -15.87980469 19.72183594 -15.90039062 18.56835938 C-15.89673961 12.41640482 -15.85199201 8.07627285 -11.40234375 3.3984375 C-7.51115289 0.57853139 -4.77447119 0.01457218 0 0 Z " fill="#020202" transform="translate(53.40234375,270.6015625)"/>
<path d="M0 0 C1.83691406 -0.00580078 1.83691406 -0.00580078 3.7109375 -0.01171875 C4.98195313 -0.00011719 6.25296875 0.01148438 7.5625 0.0234375 C8.83351563 0.01183594 10.10453125 0.00023437 11.4140625 -0.01171875 C12.63867188 -0.00785156 13.86328125 -0.00398438 15.125 0 C16.24003906 0.00338379 17.35507813 0.00676758 18.50390625 0.01025391 C23.20526616 0.60693033 25.72806872 2.44811299 28.8125 5.9609375 C32.422092 10.9885835 31.8195668 15.60991428 31.875 21.6484375 C31.90400391 22.68613281 31.93300781 23.72382813 31.96289062 24.79296875 C32.01459813 31.02173436 31.70914685 34.65161808 27.5625 39.3984375 C27.046875 39.9965625 26.53125 40.5946875 26 41.2109375 C21.32755639 45.07078222 13.42929221 43.66815027 7.75 43.7109375 C6.47833984 43.73994141 5.20667969 43.76894531 3.89648438 43.79882812 C-6.58904928 43.87023302 -6.58904928 43.87023302 -10.13671875 41.75390625 C-16.12803002 35.6201869 -15.92921048 29.55957932 -15.875 21.3984375 C-15.89498047 20.33109375 -15.91496094 19.26375 -15.93554688 18.1640625 C-15.93179025 12.12341661 -15.76320374 8.01252149 -11.4375 3.3984375 C-7.53853718 0.56630432 -4.78665683 0.01452598 0 0 Z " fill="#030303" transform="translate(118.4375,327.6015625)"/>
<path d="M0 0 C1.22009766 -0.00386719 2.44019531 -0.00773437 3.69726562 -0.01171875 C5.59702148 0.00568359 5.59702148 0.00568359 7.53515625 0.0234375 C8.79779297 0.01183594 10.06042969 0.00023437 11.36132812 -0.01171875 C12.58271484 -0.00785156 13.80410156 -0.00398438 15.0625 0 C16.17230225 0.00338379 17.28210449 0.00676758 18.42553711 0.01025391 C23.59615115 0.64300049 26.72261756 2.29005516 29.94140625 6.3671875 C32.44311116 11.3083142 32.18095525 16.47706114 32.09765625 21.8984375 C32.113125 22.90519531 32.12859375 23.91195313 32.14453125 24.94921875 C32.111386 31.27167519 31.56192962 35.37702457 27.59765625 40.3984375 C21.07979021 44.34318661 15.00994866 43.87770759 7.59765625 43.8359375 C6.33953125 43.85591797 5.08140625 43.87589844 3.78515625 43.89648438 C-7.85671412 43.89031813 -7.85671412 43.89031813 -12.40234375 39.3984375 C-16.38230298 33.77903545 -15.88192227 28.6284698 -15.83984375 21.9609375 C-15.85982422 20.84138672 -15.87980469 19.72183594 -15.90039062 18.56835938 C-15.89673961 12.41640482 -15.85199201 8.07627285 -11.40234375 3.3984375 C-7.51115289 0.57853139 -4.77447119 0.01457218 0 0 Z " fill="#020202" transform="translate(53.40234375,327.6015625)"/>
<path d="M0 0 C1.83691406 -0.00580078 1.83691406 -0.00580078 3.7109375 -0.01171875 C4.98195313 -0.00011719 6.25296875 0.01148438 7.5625 0.0234375 C8.83351563 0.01183594 10.10453125 0.00023437 11.4140625 -0.01171875 C12.63867188 -0.00785156 13.86328125 -0.00398438 15.125 0 C16.24003906 0.00338379 17.35507813 0.00676758 18.50390625 0.01025391 C23.20526616 0.60693033 25.72806872 2.44811299 28.8125 5.9609375 C32.422092 10.9885835 31.8195668 15.60991428 31.875 21.6484375 C31.90400391 22.68613281 31.93300781 23.72382813 31.96289062 24.79296875 C32.01459813 31.02173436 31.70914685 34.65161808 27.5625 39.3984375 C27.046875 39.9965625 26.53125 40.5946875 26 41.2109375 C21.32755639 45.07078222 13.42929221 43.66815027 7.75 43.7109375 C6.47833984 43.73994141 5.20667969 43.76894531 3.89648438 43.79882812 C-6.58904928 43.87023302 -6.58904928 43.87023302 -10.13671875 41.75390625 C-16.12803002 35.6201869 -15.92921048 29.55957932 -15.875 21.3984375 C-15.89498047 20.33109375 -15.91496094 19.26375 -15.93554688 18.1640625 C-15.93179025 12.12341661 -15.76320374 8.01252149 -11.4375 3.3984375 C-7.53853718 0.56630432 -4.78665683 0.01452598 0 0 Z " fill="#030303" transform="translate(118.4375,270.6015625)"/>
<path d="M0 0 C1.95292969 -0.05510742 1.95292969 -0.05510742 3.9453125 -0.11132812 C14.64685766 -0.16046787 14.64685766 -0.16046787 18.9140625 3.34765625 C24.34569656 8.8987544 23.99081604 14.55359233 24 21.9375 C24.02449219 22.96617187 24.04898438 23.99484375 24.07421875 25.0546875 C24.0981356 31.24117972 23.72660288 34.84295318 19.625 39.5625 C19.109375 40.160625 18.59375 40.75875 18.0625 41.375 C13.39005639 45.23484472 5.49179221 43.83221277 -0.1875 43.875 C-1.45916016 43.90400391 -2.73082031 43.93300781 -4.04101562 43.96289062 C-14.52654928 44.03429552 -14.52654928 44.03429552 -18.07421875 41.91796875 C-24.06553002 35.7842494 -23.86671048 29.72364182 -23.8125 21.5625 C-23.83248047 20.49515625 -23.85246094 19.4278125 -23.87304688 18.328125 C-23.86929025 12.28747911 -23.70070374 8.17658399 -19.375 3.5625 C-13.40234956 -0.77631456 -7.11684064 0.01050715 0 0 Z " fill="#030303" transform="translate(126.375,213.4375)"/>
<path d="M0 0 C1.83691406 -0.00580078 1.83691406 -0.00580078 3.7109375 -0.01171875 C4.98195313 -0.00011719 6.25296875 0.01148438 7.5625 0.0234375 C8.83351563 0.01183594 10.10453125 0.00023437 11.4140625 -0.01171875 C12.63867188 -0.00785156 13.86328125 -0.00398437 15.125 0 C16.24003906 0.00338379 17.35507813 0.00676758 18.50390625 0.01025391 C23.7510435 0.67619805 27.14540228 3.49318296 30.5625 7.3984375 C32.11897319 12.06785708 31.82954094 16.75704286 31.875 21.6484375 C31.90400391 22.67324219 31.93300781 23.69804687 31.96289062 24.75390625 C32.01669865 31.18603497 31.63070133 35.29800598 27.5625 40.3984375 C21.04241557 44.34115178 14.97626517 43.87771589 7.5625 43.8359375 C6.304375 43.85591797 5.04625 43.87589844 3.75 43.89648438 C-6.52228495 43.89104355 -6.52228495 43.89104355 -10.125 41.74609375 C-16.1422063 35.63740965 -15.92916107 29.55214051 -15.875 21.3984375 C-15.89498047 20.33109375 -15.91496094 19.26375 -15.93554688 18.1640625 C-15.93179025 12.12341661 -15.76320374 8.01252149 -11.4375 3.3984375 C-7.53853718 0.56630432 -4.78665683 0.01452598 0 0 Z " fill="#020202" transform="translate(53.4375,213.6015625)"/>
<path d="M0 0 C1.16724609 -0.01611328 2.33449219 -0.03222656 3.53710938 -0.04882812 C14.4917023 -0.05507006 14.4917023 -0.05507006 19.0625 3.3125 C22.53673251 6.98408204 23.57154836 9.23400377 23.59375 14.27734375 C23.60148437 15.97213867 23.60148437 15.97213867 23.609375 17.70117188 C23.59390625 18.87228516 23.5784375 20.04339844 23.5625 21.25 C23.57796875 22.41724609 23.5934375 23.58449219 23.609375 24.78710938 C23.55934156 35.76319529 23.55934156 35.76319529 19.0625 40.3125 C13.48673328 44.54793818 6.74884243 43.75421517 0.0625 43.6875 C-1.68160156 43.70490234 -1.68160156 43.70490234 -3.4609375 43.72265625 C-14.49805409 43.68477141 -14.49805409 43.68477141 -18.9375 40.3125 C-23.49952579 35.68192958 -23.48014856 31.01856298 -23.53320312 24.8359375 C-23.52224609 23.67320312 -23.51128906 22.51046875 -23.5 21.3125 C-23.52384766 20.14976562 -23.54769531 18.98703125 -23.57226562 17.7890625 C-23.55597294 8.2958592 -23.55597294 8.2958592 -20.71484375 4.625 C-14.36782804 -0.65971632 -7.90089552 -0.02174159 0 0 Z " fill="#030302" transform="translate(190.9375,327.6875)"/>
<path d="M0 0 C1.01642578 -0.020625 2.03285156 -0.04125 3.08007812 -0.0625 C9.37149726 -0.0949928 14.13805857 0.44877632 19.8125 3.25 C22.13999345 6.74124017 22.31549316 8.14222251 21.8125 12.25 C19.68077262 15.06159603 18.56040389 16.14527906 15.02270508 16.640625 C13.44332153 16.57101563 13.44332153 16.57101563 11.83203125 16.5 C10.66736328 16.4690625 9.50269531 16.438125 8.30273438 16.40625 C5.87040738 16.30291163 3.43811485 16.19875833 1.00585938 16.09375 C-6.42686563 15.89739843 -11.73749865 16.46078709 -18.1875 20.25 C-19.05761719 20.73082031 -19.92773438 21.21164063 -20.82421875 21.70703125 C-29.52048601 27.4548498 -33.86786253 33.85207904 -38.1875 43.25 C-40.87715517 49.04310345 -40.87715517 49.04310345 -44.1875 51.25 C-47.125 51.6875 -47.125 51.6875 -50.1875 51.25 C-52.7644337 49.20166809 -53.98419638 47.68807417 -54.453125 44.37109375 C-54.02212086 32.66933128 -45.37827117 21.90345658 -37.1875 14.25 C-26.03673849 4.72574054 -14.51647757 0.07226622 0 0 Z " fill="#040404" transform="translate(274.1875,124.75)"/>
<path d="M0 0 C1.64162109 -0.02513672 1.64162109 -0.02513672 3.31640625 -0.05078125 C7.06729192 0.38580494 9.74714404 1.62214404 12.4375 4.3125 C13.02286487 10.51736758 13.02286487 10.51736758 10.82421875 13.50390625 C7.74630517 15.83626957 5.76620704 15.84090418 1.9375 15.9375 C-3.64896223 15.99920003 -3.64896223 15.99920003 -8.5625 18.3125 C-10.00280248 20.40457219 -10.00280248 20.40457219 -11.125 22.8125 C-12.76720616 26.12921801 -13.37867571 27.18995048 -16.5625 29.3125 C-19.5 29.75 -19.5 29.75 -22.5625 29.3125 C-25.27301734 26.88730027 -26.36451139 25.16385101 -27.1875 21.625 C-25.71858182 13.83973367 -21.01506574 8.00350545 -14.6875 3.46875 C-9.86421474 0.84431538 -5.45754992 0.01933016 0 0 Z " fill="#040404" transform="translate(275.5625,154.6875)"/>
<path d="M0 0 C0.0501123 0.79059814 0.10022461 1.58119629 0.15185547 2.39575195 C0.38631084 6.03512665 0.63059478 9.67378049 0.875 13.3125 C0.95363281 14.55580078 1.03226562 15.79910156 1.11328125 17.08007812 C1.56659954 23.72293458 2.23511215 30.12071529 3.69970703 36.62182617 C4.0440351 39.34873651 3.76312009 41.366925 3 44 C-0.10775589 46.41714347 -3.17967165 46.4584394 -7 46 C-10.03522895 44.36564595 -12.28352297 42.944447 -14.375 40.1875 C-16.40514491 33.08199282 -14.1762702 25.35932452 -12.8125 18.3125 C-12.51762695 16.62157227 -12.51762695 16.62157227 -12.21679688 14.89648438 C-10.6252495 6.66451163 -10.6252495 6.66451163 -7.51171875 3.35546875 C-6.26841797 2.68451172 -6.26841797 2.68451172 -5 2 C-2 0 -2 0 0 0 Z " fill="#FBE2C2" transform="translate(320,351)"/>
<path d="M0 0 C-0.42156184 7.90791866 -1.06537113 14.76109163 -5.6875 21.4375 C-9.00401084 23.6783857 -12.00901035 24.33769912 -16 24 C-19.79560358 22.03190926 -21.6288722 20.5566917 -24 17 C-24.23046875 14.22265625 -24.23046875 14.22265625 -24.1875 11.0625 C-24.18105469 10.02222656 -24.17460937 8.98195313 -24.16796875 7.91015625 C-24.02439529 5.42266259 -23.64238985 3.38597366 -23 1 C-21.10314453 1.01740234 -21.10314453 1.01740234 -19.16796875 1.03515625 C-17.50781398 1.04453566 -15.84765761 1.0536357 -14.1875 1.0625 C-13.35412109 1.07087891 -12.52074219 1.07925781 -11.66210938 1.08789062 C-10.45844727 1.09272461 -10.45844727 1.09272461 -9.23046875 1.09765625 C-8.49207764 1.10289307 -7.75368652 1.10812988 -6.99291992 1.11352539 C-4.51552873 0.97240241 -2.48885066 0 0 0 Z " fill="#F9E1C1" transform="translate(293,366)"/>
<path d="M0 0 C3.09481323 2.53211992 5.85450518 5.10531762 7 9 C6.78605281 15.09749492 6.78605281 15.09749492 4.3125 17.9375 C1.17816119 19.37760162 -0.58624593 19.62701605 -4 19 C-6.90869462 16.09130538 -9.75684189 12.97810595 -11 9 C-10.86003746 5.57091775 -10.63112109 3.70124565 -8.3125 1.125 C-5.21507874 -0.38185358 -3.40864082 -0.55651279 0 0 Z " fill="#080808" transform="translate(283,182)"/>
<path d="M0 0 C0 2.31 0 4.62 0 7 C-0.66 5.68 -1.32 4.36 -2 3 C-2.66 3 -3.32 3 -4 3 C-4.03738281 3.54785156 -4.07476562 4.09570312 -4.11328125 4.66015625 C-4.55558033 9.99376279 -5.41256471 15.08354896 -6.5625 20.3125 C-8.23705825 28.36671676 -9.37747132 36.96644771 -7 45 C-10.09891358 44.07870137 -11.72788114 43.32841931 -13.8125 40.8125 C-16.79856327 33.7402449 -14.21352224 25.55181195 -12.8125 18.3125 C-12.51762695 16.62157227 -12.51762695 16.62157227 -12.21679688 14.89648438 C-10.6252495 6.66451163 -10.6252495 6.66451163 -7.51171875 3.35546875 C-6.26841797 2.68451172 -6.26841797 2.68451172 -5 2 C-2 0 -2 0 0 0 Z " fill="#E7C59F" transform="translate(320,351)"/>
<path d="M0 0 C5.61 0 11.22 0 17 0 C17 4.29 17 8.58 17 13 C11.39 13 5.78 13 0 13 C0 8.71 0 4.42 0 0 Z " fill="#F3E187" transform="translate(183,343)"/>
<path d="M0 0 C5.61 0 11.22 0 17 0 C17 4.29 17 8.58 17 13 C11.39 13 5.78 13 0 13 C0 8.71 0 4.42 0 0 Z " fill="#F4F3F4" transform="translate(118,343)"/>
<path d="M0 0 C5.61 0 11.22 0 17 0 C17 4.29 17 8.58 17 13 C11.39 13 5.78 13 0 13 C0 8.71 0 4.42 0 0 Z " fill="#F7F6F7" transform="translate(53,343)"/>
<path d="M0 0 C5.61 0 11.22 0 17 0 C17 4.29 17 8.58 17 13 C11.39 13 5.78 13 0 13 C0 8.71 0 4.42 0 0 Z " fill="#F4F3F4" transform="translate(118,286)"/>
<path d="M0 0 C5.61 0 11.22 0 17 0 C17 4.29 17 8.58 17 13 C11.39 13 5.78 13 0 13 C0 8.71 0 4.42 0 0 Z " fill="#F7F6F7" transform="translate(53,286)"/>
<path d="M0 0 C5.61 0 11.22 0 17 0 C17 4.29 17 8.58 17 13 C11.39 13 5.78 13 0 13 C0 8.71 0 4.42 0 0 Z " fill="#F4F3F4" transform="translate(118,229)"/>
<path d="M0 0 C5.61 0 11.22 0 17 0 C17 4.29 17 8.58 17 13 C11.39 13 5.78 13 0 13 C0 8.71 0 4.42 0 0 Z " fill="#F7F6F7" transform="translate(53,229)"/>
<path d="M0 0 C5.28 0 10.56 0 16 0 C16 4.29 16 8.58 16 13 C10.72 13 5.44 13 0 13 C0 8.71 0 4.42 0 0 Z " fill="#D8EFA7" transform="translate(183,286)"/>
<path d="M0 0 C6.71155786 3.00624165 12.24197032 4.51310663 19.6875 3.5 C20.1825 4.49 20.1825 4.49 20.6875 5.5 C16.09737282 8.23221856 13.84599948 8.78039128 8.6875 7.5 C6.05054069 6.42195107 3.50267769 5.17481378 0.9375 3.9375 C-6.4960716 0.52046187 -12.42100586 -1.06527813 -20.4375 1.5 C-21.05625 1.83 -21.675 2.16 -22.3125 2.5 C-21.39736681 0.21216703 -20.65765354 -1.23449728 -18.6875 -2.75 C-11.64805573 -4.9729824 -6.3282336 -3.0136874 0 0 Z " fill="#E1DFE0" transform="translate(138.3125,476.5)"/>
<path d="M0 0 C1.65 0 3.3 0 5 0 C4.85888117 2.75031587 4.71228835 5.50015418 4.5625 8.25 C4.50352539 9.41595703 4.50352539 9.41595703 4.44335938 10.60546875 C4.40146484 11.35957031 4.35957031 12.11367188 4.31640625 12.890625 C4.27974854 13.58188477 4.24309082 14.27314453 4.20532227 14.98535156 C3.99324476 17.06628329 3.55491323 18.98572422 3 21 C0.26650494 18.60819183 -0.91938042 16.76745656 -1.30078125 13.13671875 C-1.31734419 8.61503682 -1.28653167 4.36165614 0 0 Z " fill="#ECC9A2" transform="translate(270,367)"/>
<path d="M0 0 C4.14932124 1.73987431 8.07630765 3.80273229 12 6 C12 6.66 12 7.32 12 8 C8.89763201 7.52994424 6.60433036 6.80977421 3.75 5.4375 C-1.34163789 3.14849612 -6.76014254 3.25338085 -12 5 C-9.4863239 -0.56599709 -5.840617 -1.0098263 0 0 Z " fill="#DCDBDC" transform="translate(179,473)"/>
</svg>
