<?xml version="1.0" encoding="UTF-8"?>
<svg version="1.1" xmlns="http://www.w3.org/2000/svg" width="512" height="512">
<path d="M0 0 C1.01823853 0.00215515 2.03647705 0.0043103 3.08557129 0.00653076 C17.70747424 0.05622604 32.00633932 0.36188758 46.375 3.3125 C47.89383789 3.61051514 47.89383789 3.61051514 49.44335938 3.91455078 C82.96021771 10.61691835 116.43239122 23.30721197 144.375 43.3125 C145.30570312 43.96992187 146.23640625 44.62734375 147.1953125 45.3046875 C156.84119308 52.20995577 165.85245282 59.60968905 174.515625 67.69921875 C176.49320537 69.50659753 178.4616654 71.22641972 180.53125 72.91796875 C182.81887163 74.84422158 184.71731006 76.65831255 186.625 78.9375 C188.55563919 81.21304641 190.49619329 83.44022076 192.55078125 85.60546875 C231.51305841 126.73585953 256.52222817 187.52922425 256.5625 244.3125 C256.57474609 245.25222656 256.58699219 246.19195312 256.59960938 247.16015625 C256.60154297 248.05605469 256.60347656 248.95195312 256.60546875 249.875 C256.60957764 250.68066406 256.61368652 251.48632812 256.61791992 252.31640625 C256.375 254.3125 256.375 254.3125 254.375 256.3125 C251.60182641 256.52455956 248.93101963 256.61647141 246.15625 256.61328125 C245.34256958 256.61756638 244.52888916 256.6218515 243.69055176 256.62626648 C241.96900362 256.63201336 240.24743119 256.6325074 238.52587891 256.62817383 C235.8853232 256.62501236 233.24588593 256.64847264 230.60546875 256.67382812 C228.93489725 256.67610086 227.26432273 256.67680473 225.59375 256.67578125 C224.80101685 256.684991 224.00828369 256.69420074 223.19152832 256.70368958 C220.96679688 256.68481445 220.96679688 256.68481445 217.375 256.3125 C215.19465379 253.04198069 215.0196292 251.60907564 214.69921875 247.7734375 C214.59649658 246.6484082 214.49377441 245.52337891 214.38793945 244.36425781 C214.28054443 243.15092773 214.17314941 241.93759766 214.0625 240.6875 C208.30601239 182.81789057 183.00217132 129.28902148 137.9375 91.625 C91.82391337 55.12119119 34.40462896 36.44108316 -24.51489258 43.26220703 C-66.223172 48.79371487 -103.77274251 65.224456 -136.625 91.3125 C-137.21345703 91.77221191 -137.80191406 92.23192383 -138.40820312 92.70556641 C-140.02617552 93.98499062 -141.61060519 95.29545617 -143.1875 96.625 C-144.07566406 97.36363281 -144.96382813 98.10226563 -145.87890625 98.86328125 C-147.92860061 101.24517786 -147.92860061 101.24517786 -147.66186523 104.51000977 C-146.25896178 109.65486999 -143.60384887 112.02731645 -139.78125 115.6015625 C-139.09695923 116.26787689 -138.41266846 116.93419128 -137.7076416 117.62069702 C-135.52726175 119.74119443 -133.32817 121.84070985 -131.125 123.9375 C-128.92367502 126.0431152 -126.72716904 128.15297496 -124.5423584 130.27572632 C-123.18465761 131.59396371 -121.81718782 132.90223122 -120.43908691 134.1991272 C-115.87890034 138.61402757 -115.87890034 138.61402757 -114.61914062 142.07958984 C-114.62742033 145.23484711 -115.71226688 146.8532717 -117.625 149.3125 C-120.34997539 150.22082513 -121.94631387 150.44149468 -124.74850464 150.45294189 C-125.58681824 150.45865204 -126.42513184 150.46436218 -127.28884888 150.47024536 C-128.66349808 150.47192215 -128.66349808 150.47192215 -130.06591797 150.47363281 C-131.03368164 150.47859772 -132.00144531 150.48356262 -132.99853516 150.48867798 C-136.2047598 150.50330089 -139.41093497 150.51010152 -142.6171875 150.515625 C-144.84294639 150.52137595 -147.06870526 150.52713369 -149.29446411 150.53289795 C-153.9634016 150.54340803 -158.63232187 150.54925079 -163.30126953 150.55273438 C-169.28582478 150.55822181 -175.27015282 150.58225528 -181.25463676 150.61070633 C-185.85284085 150.62932263 -190.45099007 150.63453776 -195.04922867 150.63607025 C-197.2556495 150.63909913 -199.46206931 150.64713553 -201.66845322 150.66025543 C-204.75424284 150.67729602 -207.83947548 150.67544049 -210.92529297 150.66894531 C-211.83767731 150.6781601 -212.75006165 150.68737488 -213.69009399 150.6968689 C-218.96314157 150.66207265 -222.70487901 150.23262099 -226.625 146.3125 C-226.72891406 144.96842466 -226.76459897 143.61898482 -226.77217102 142.2709198 C-226.77932632 141.40025375 -226.78648163 140.52958771 -226.79385376 139.63253784 C-226.79654266 138.66994049 -226.79923157 137.70734314 -226.80200195 136.71557617 C-226.81185875 135.20343788 -226.81185875 135.20343788 -226.82191467 133.66075134 C-226.84170165 130.30898982 -226.85332205 126.95727321 -226.86328125 123.60546875 C-226.86735678 122.46399195 -226.8714323 121.32251514 -226.87563133 120.14644814 C-226.89651479 114.10536503 -226.91080683 108.0643048 -226.92016602 102.02319336 C-226.93123721 95.77162253 -226.96563914 89.520407 -227.00533772 83.26896191 C-227.03143837 78.47263409 -227.03985202 73.67639176 -227.04344749 68.87999916 C-227.04833015 66.575052 -227.0599915 64.27010908 -227.07848549 61.96523094 C-227.10273799 58.74240063 -227.10193713 55.52050034 -227.0949707 52.29760742 C-227.10778076 51.34108276 -227.12059082 50.38455811 -227.13378906 49.39904785 C-227.08285076 42.949978 -227.08285076 42.949978 -224.77038574 39.73027039 C-222.625 38.3125 -222.625 38.3125 -219.82885742 37.64306641 C-215.01341458 38.64923453 -212.67850786 41.53091191 -209.36328125 45.0234375 C-208.69080856 45.70677155 -208.01833588 46.39010559 -207.32548523 47.09414673 C-205.18157327 49.27821724 -203.05922372 51.48188803 -200.9375 53.6875 C-198.8008928 55.88152866 -196.66010023 58.07137234 -194.51737976 60.25942993 C-193.18620754 61.62170444 -191.85939341 62.98825411 -190.53742981 64.35946655 C-189.93637924 64.9799588 -189.33532867 65.60045105 -188.71606445 66.23974609 C-188.19011185 66.78601654 -187.66415924 67.33228699 -187.12226868 67.89511108 C-184.7654016 70.12623855 -183.21968713 71.28484013 -179.9375 71.4375 C-175.78278429 70.02646448 -174.03223433 67.90337685 -171.0703125 64.75 C-158.07393459 51.79514406 -141.53172838 41.30441521 -125.625 32.3125 C-124.91778809 31.9103125 -124.21057617 31.508125 -123.48193359 31.09375 C-100.34654164 18.0683259 -75.17537591 9.31948539 -49.1875 4 C-48.46860596 3.85264404 -47.74971191 3.70528809 -47.0090332 3.5534668 C-31.36274321 0.57960898 -15.88931915 -0.06049808 0 0 Z " fill="#000000" transform="translate(255.625,-0.3125)"/>
<path d="M0 0 C0.79273315 0.00091141 1.58546631 0.00182281 2.40222168 0.00276184 C3.2159021 -0.00152328 4.02958252 -0.00580841 4.86791992 -0.01022339 C6.58946806 -0.01597027 8.31104049 -0.01646431 10.03259277 -0.01213074 C12.67314847 -0.00896927 15.31258575 -0.03242955 17.95300293 -0.05778503 C19.62357443 -0.06005777 21.29414895 -0.06076164 22.96472168 -0.05973816 C23.75745483 -0.06894791 24.55018799 -0.07815765 25.36694336 -0.08764648 C27.5916748 -0.06877136 27.5916748 -0.06877136 31.18347168 0.30354309 C33.40468621 3.63536488 33.54657658 5.17249917 33.85925293 9.09651184 C33.9619751 10.27189514 34.06469727 11.44727844 34.17053223 12.65827942 C34.27792725 13.92309143 34.38532227 15.18790344 34.49597168 16.49104309 C40.00075816 74.0158841 65.91752155 127.62892201 110.62097168 164.99104309 C156.75997782 201.47614463 214.13903977 220.17667367 273.07336426 213.35383606 C314.78164368 207.82232822 352.33121419 191.39158709 385.18347168 165.30354309 C385.77192871 164.84383118 386.36038574 164.38411926 386.9666748 163.91047668 C388.5846472 162.63105247 390.16907687 161.32058692 391.74597168 159.99104309 C392.63413574 159.25241028 393.5222998 158.51377747 394.43737793 157.75276184 C396.48707229 155.37086523 396.48707229 155.37086523 396.22033691 152.10603333 C394.81743345 146.9611731 392.16232055 144.58872664 388.33972168 141.01448059 C387.31328552 140.015009 387.31328552 140.015009 386.26611328 138.99534607 C384.08573342 136.87484866 381.88664168 134.77533324 379.68347168 132.67854309 C377.4821467 130.57292789 375.28564072 128.46306813 373.10083008 126.34031677 C371.74312929 125.02207938 370.3756595 123.71381187 368.99755859 122.41691589 C364.43737202 118.00201552 364.43737202 118.00201552 363.1776123 114.53645325 C363.18589201 111.38119598 364.27073856 109.76277139 366.18347168 107.30354309 C368.90844707 106.39521796 370.50478555 106.17454841 373.30697632 106.1631012 C374.56444672 106.15453598 374.56444672 106.15453598 375.84732056 106.14579773 C377.22196976 106.14412094 377.22196976 106.14412094 378.62438965 106.14241028 C379.59215332 106.13744537 380.55991699 106.13248047 381.55700684 106.12736511 C384.76323148 106.1127422 387.96940665 106.10594157 391.17565918 106.10041809 C393.40141807 106.09466714 395.62717694 106.0889094 397.85293579 106.08314514 C402.52187328 106.07263506 407.19079355 106.0667923 411.85974121 106.06330872 C417.84429646 106.05782128 423.8286245 106.03378781 429.81310844 106.00533676 C434.41131253 105.98672046 439.00946175 105.98150533 443.60770035 105.97997284 C445.81412118 105.97694396 448.02054099 105.96890756 450.2269249 105.95578766 C453.31271452 105.93874707 456.39794716 105.9406026 459.48376465 105.94709778 C460.39614899 105.937883 461.30853333 105.92866821 462.24856567 105.91917419 C467.52161325 105.95397044 471.26335069 106.3834221 475.18347168 110.30354309 C475.28738574 111.64761843 475.32307065 112.99705827 475.3306427 114.34512329 C475.34137566 115.65112236 475.34137566 115.65112236 475.35232544 116.98350525 C475.35501434 117.9461026 475.35770325 118.90869995 475.36047363 119.90046692 C475.36704483 120.90855911 475.37361603 121.91665131 475.38038635 122.95529175 C475.40017333 126.30705327 475.41179373 129.65876988 475.42175293 133.01057434 C475.42582846 134.15205114 475.42990398 135.29352795 475.43410301 136.46959496 C475.45498647 142.51067806 475.46927851 148.5517383 475.4786377 154.59284973 C475.48970889 160.84442056 475.52411082 167.09563609 475.56380939 173.34708118 C475.58991005 178.143409 475.5983237 182.93965133 475.60191917 187.73604393 C475.60680183 190.04099109 475.61846318 192.34593401 475.63695717 194.65081215 C475.66120966 197.87364246 475.66040881 201.09554275 475.65344238 204.31843567 C475.66625244 205.27496033 475.6790625 206.23148499 475.69226074 207.21699524 C475.64131927 213.66646636 475.64131927 213.66646636 473.32841492 216.88478088 C471.18347168 218.30354309 471.18347168 218.30354309 468.39440918 218.98884583 C463.50593706 217.94551088 461.14408702 214.91366162 457.80847168 211.33869934 C457.12091797 210.63079758 456.43336426 209.92289581 455.72497559 209.19354248 C453.52959385 206.93151745 451.35483436 204.65111863 449.18347168 202.36604309 C447.01130975 200.08541736 444.83497152 197.80985703 442.64196777 195.54925537 C441.27831904 194.14335215 439.92650252 192.72585082 438.58825684 191.29574585 C435.68122293 188.29626386 433.90118285 186.52014041 429.83996582 185.29450989 C427.21176436 185.08926514 427.21176436 185.08926514 425.30456543 186.35041809 C424.74897949 186.91244934 424.19339355 187.47448059 423.62097168 188.05354309 C422.93776855 188.70451965 422.25456543 189.35549622 421.55065918 190.02619934 C420.7694873 190.77772278 419.98831543 191.52924622 419.18347168 192.30354309 C405.3389831 204.62475229 390.33173866 215.2147141 374.18347168 224.30354309 C373.48061035 224.7028302 372.77774902 225.10211731 372.05358887 225.51350403 C348.91357234 238.54311333 323.7400463 247.29528888 297.74597168 252.61604309 C297.02707764 252.76339905 296.30818359 252.910755 295.56750488 253.06257629 C279.92121489 256.03643411 264.44779083 256.67654117 248.55847168 256.61604309 C247.54023315 256.61388794 246.52199463 256.61173279 245.47290039 256.60951233 C230.85099743 256.55981705 216.55213236 256.25415551 202.18347168 253.30354309 C201.17091309 253.10486633 200.15835449 252.90618958 199.1151123 252.70149231 C162.2598428 245.33154252 127.53873316 230.5367211 97.18347168 208.30354309 C96.6104834 207.88749817 96.03749512 207.47145325 95.44714355 207.0428009 C87.88553549 201.51835839 80.94692216 195.50146827 74.15612793 189.06526184 C72.16746313 187.18607685 70.13034406 185.40955871 68.01159668 183.67854309 C65.70764141 181.74372982 63.79459937 179.90749623 61.87097168 177.61604309 C60.02822249 175.44480382 58.18485969 173.30501438 56.23034668 171.23323059 C15.01169891 127.41933463 -9.32351058 64.13997431 -8.10705566 4.12165833 C-7.36832701 -0.50129315 -3.8754621 0.05031721 0 0 Z " fill="#000000" transform="translate(7.8165283203125,255.6964569091797)"/>
<path d="M0 0 C0.09341112 17.40230919 0.16396329 34.80454022 0.20724869 52.20704269 C0.22788041 60.28720222 0.2560125 68.36720604 0.30175781 76.44726562 C0.3416071 83.48925481 0.36742838 90.53113123 0.37635398 97.57323003 C0.38157203 101.30257069 0.39384851 105.03158877 0.42292023 108.76082611 C0.45509962 112.92240249 0.45596065 117.08341684 0.45410156 121.24511719 C0.46848267 122.48373505 0.48286377 123.72235291 0.49768066 124.99850464 C0.49218201 126.13149994 0.48668335 127.26449524 0.48101807 128.43182373 C0.48470524 129.41629864 0.48839241 130.40077354 0.49219131 131.41508102 C-0.14069283 134.73889877 -1.42650943 135.87547559 -4 138 C-5.68511012 139.10550407 -7.4109729 140.15034203 -9.1640625 141.14453125 C-10.19015625 141.73105469 -11.21625 142.31757813 -12.2734375 142.921875 C-13.37945312 143.54578125 -14.48546875 144.1696875 -15.625 144.8125 C-16.7920553 145.47718268 -17.95871523 146.14255999 -19.125 146.80859375 C-21.5469809 148.19100803 -23.97063154 149.57042515 -26.39550781 150.94775391 C-31.94639701 154.10394139 -37.47182901 157.30425009 -43 160.5 C-45.16654724 161.75020698 -47.33321431 163.00020633 -49.5 164.25 C-51.10875 165.178125 -51.10875 165.178125 -52.75 166.125 C-56 168 -59.25 169.875 -62.5 171.75 C-64.11104614 172.67945435 -64.11104614 172.67945435 -65.75463867 173.62768555 C-67.90583224 174.86875254 -70.05703655 176.10980093 -72.20825195 177.35083008 C-77.25962999 180.26498344 -82.3109031 183.17931818 -87.36178589 186.09432983 C-89.15066918 187.12673478 -90.93958717 188.15907956 -92.72851562 189.19140625 C-94.97337636 190.48685948 -97.2181719 191.7824257 -99.46289062 193.078125 C-101.44501637 194.2219008 -103.42786907 195.36441823 -105.41162109 196.50537109 C-107.01795749 197.43293112 -108.62060459 198.36695074 -110.21728516 199.31103516 C-114.79076325 202 -114.79076325 202 -117 202 C-117.51534569 184.62387365 -117.90252544 167.25014934 -118.13986778 149.86811543 C-118.25303583 141.79578165 -118.40708271 133.72820994 -118.65966797 125.65893555 C-118.87989134 118.62012417 -119.02108143 111.58475981 -119.06994689 104.54259938 C-119.09850133 100.81603376 -119.16480224 97.09932083 -119.32606125 93.37594032 C-120.26657812 70.80103268 -120.26657812 70.80103268 -114.84719849 64.49497223 C-109.6016403 60.24205835 -103.84576509 57.49759462 -97.58761215 55.0478611 C-94.17750044 53.6669264 -91.204492 51.90853761 -88.078125 49.9765625 C-86.13611511 48.85816133 -84.19341594 47.74095612 -82.25 46.625 C-80.04685608 45.35680371 -77.84373165 44.08857355 -75.640625 42.8203125 C-74.54298828 42.18899414 -73.44535156 41.55767578 -72.31445312 40.90722656 C-65.79772824 37.15732565 -59.2869244 33.39715434 -52.77514648 29.63867188 C-47.22344009 26.43487726 -41.66994947 23.23424476 -36.11328125 20.0390625 C-33.84625229 18.73455203 -31.57932355 17.42986738 -29.3125 16.125 C-28.22904297 15.50165771 -27.14558594 14.87831543 -26.02929688 14.23608398 C-19.36074932 10.39015037 -12.72612014 6.49542782 -6.18481445 2.43603516 C-2.21145814 0 -2.21145814 0 0 0 Z " fill="#000000" transform="translate(381,193)"/>
<path d="M0 0 C3.99465961 1.55336302 7.60919379 3.38621375 11.33203125 5.51953125 C11.92747238 5.85997971 12.52291351 6.20042816 13.13639832 6.55119324 C14.39202237 7.26998232 15.64675315 7.99033385 16.90063477 8.7121582 C18.79429997 9.80202528 20.69082363 10.88677045 22.58789062 11.97070312 C26.06784752 13.96522974 29.5449587 15.96241154 33 18 C33.71572174 18.32442581 34.43144348 18.64885162 35.16885376 18.98310852 C37.47921461 20.13662098 39.18723545 21.15474288 41 23 C42.11467555 26.54808625 41.97860039 29.93737025 41.859375 33.62890625 C41.86076477 34.65555893 41.86215454 35.68221161 41.86358643 36.73997498 C41.86327513 40.01560882 41.81012777 43.28746076 41.75 46.5625 C41.71106514 49.84047886 41.68368557 53.11752501 41.67926025 56.39573669 C41.67441786 58.43371544 41.64858161 60.47177598 41.59954834 62.50917053 C41.47983663 67.78374594 41.47983663 67.78374594 43.64501953 72.42871094 C46.39259826 74.26194924 49.13612922 76.00142422 52.0078125 77.63671875 C52.57450653 77.96162796 53.14120056 78.28653717 53.72506714 78.62129211 C55.52167401 79.64940398 57.32322119 80.66848488 59.125 81.6875 C60.3427774 82.38288686 61.56022878 83.07884498 62.77734375 83.77539062 C71.29225086 89.0709957 71.29225086 89.0709957 81 90 C84.43652464 85.93323907 84.46895658 81.73377423 84.51171875 76.63671875 C84.53864555 75.44874443 84.53864555 75.44874443 84.56611633 74.23677063 C84.62006838 71.72040038 84.65406563 69.20421815 84.6875 66.6875 C84.72068651 64.97588538 84.75517741 63.26429552 84.79101562 61.55273438 C84.87578582 57.36862558 84.94266843 53.18457107 85 49 C88.22913054 50.52111776 91.4144515 52.09476668 94.56546021 53.76994324 C97.54618837 55.3302837 100.51206908 56.58251701 103.66915894 57.73921204 C108.95564421 59.93189843 113.51208671 62.34760197 117 67 C120.0819935 75.94422211 119.15483473 86.03360988 118.82509089 95.37576079 C118.71182927 99.12942281 118.70193917 102.88339709 118.68063354 106.63850403 C118.62488991 113.73437679 118.47750156 120.82520143 118.29634273 127.91885978 C118.09447711 136.00046909 117.99602053 144.08233213 117.9058249 152.1658386 C117.7181466 168.78017182 117.40198552 185.38943996 117 202 C113.06804528 200.7282356 109.63344163 199.38267032 106.078125 197.26953125 C105.14887207 196.72176025 104.21961914 196.17398926 103.26220703 195.60961914 C102.26817871 195.01656982 101.27415039 194.42352051 100.25 193.8125 C98.08632451 192.53580222 95.92224834 191.25978329 93.7578125 189.984375 C92.08380371 188.9953418 92.08380371 188.9953418 90.37597656 187.98632812 C84.9787367 184.81074644 79.55236 181.6862344 74.125 178.5625 C71.94008624 177.30341652 69.75519051 176.04430177 67.5703125 174.78515625 C65.94270996 173.84760498 65.94270996 173.84760498 64.28222656 172.89111328 C57.78293706 169.1464319 51.28643128 165.39692174 44.79003906 161.6472168 C39.7499957 158.73852935 34.70898255 155.83157154 29.66400146 152.93145752 C27.88250422 151.90724335 26.10135678 150.88242349 24.3203125 149.85742188 C22.08923375 148.57366625 19.85750427 147.29104061 17.625 146.00976562 C1.30805117 136.61610233 1.30805117 136.61610233 0 134 C-0.09332602 132.22611188 -0.12191465 130.4486734 -0.12025452 128.67233276 C-0.12162918 127.54208679 -0.12300385 126.41184082 -0.12442017 125.24734497 C-0.12082489 124.00153656 -0.11722961 122.75572815 -0.11352539 121.47216797 C-0.11367142 120.16489746 -0.11381744 118.85762695 -0.1139679 117.51074219 C-0.1142555 113.92005239 -0.10836466 110.3293958 -0.10139394 106.73871374 C-0.09515433 102.98841869 -0.09455612 99.23812293 -0.09336853 95.48782349 C-0.09025701 88.38343968 -0.08204603 81.27907122 -0.07201904 74.17469418 C-0.06085235 66.08774211 -0.05534605 58.00078933 -0.05032361 49.91383147 C-0.03986327 33.27587866 -0.02226728 16.63794129 0 0 Z " fill="#000000" transform="translate(131,193)"/>
<path d="M0 0 C2.78564453 1.17407227 2.78564453 1.17407227 5.6328125 2.81640625 C6.68726563 3.41646484 7.74171875 4.01652344 8.828125 4.63476562 C9.91609375 5.27091797 11.0040625 5.90707031 12.125 6.5625 C13.18976563 7.17158203 14.25453125 7.78066406 15.3515625 8.40820312 C18.57647826 10.25744184 21.78965069 12.12560148 25 14 C26.1597699 14.67572291 27.31960101 15.35134076 28.47949219 16.02685547 C31.32071512 17.68277527 34.16087203 19.34049173 37 21 C35.73172274 24.80483177 34.56878831 25.10984818 31.12890625 27.046875 C30.09314453 27.63662109 29.05738281 28.22636719 27.99023438 28.83398438 C26.85908203 29.46626953 25.72792969 30.09855469 24.5625 30.75 C23.38161359 31.41895566 22.20128302 32.0888934 21.02148438 32.75976562 C18.56741044 34.15421893 16.11098596 35.54439313 13.65283203 36.93164062 C8.07920501 40.08167162 2.54142826 43.29378813 -3 46.5 C-5.16649563 47.75029642 -7.33316295 49.00029538 -9.5 50.25 C-10.5725 50.86875 -11.645 51.4875 -12.75 52.125 C-22.5 57.75 -22.5 57.75 -25.75390625 59.62719727 C-27.9076172 60.86976019 -30.06126367 62.11243489 -32.21484375 63.35522461 C-37.23684262 66.25314623 -42.25942807 69.15003349 -47.28442383 72.04275513 C-49.05045522 73.05947198 -50.81627431 74.07655658 -52.58203125 75.09375 C-54.78734155 76.36400873 -56.99304216 77.63359018 -59.19921875 78.90234375 C-60.20597656 79.48242188 -61.21273437 80.0625 -62.25 80.66015625 C-63.70019531 81.48797607 -63.70019531 81.48797607 -65.1796875 82.33251953 C-67.06966545 83.44994936 -68.93001619 84.61896793 -70.7578125 85.83544922 C-71.62148437 86.40408691 -72.48515625 86.97272461 -73.375 87.55859375 C-74.12523437 88.07607178 -74.87546875 88.5935498 -75.6484375 89.12670898 C-79.05328007 90.3911527 -80.72749139 89.4409929 -84 88 C-86.00108807 86.96217487 -87.97458114 85.86992821 -89.921875 84.734375 C-91.03046875 84.09113281 -92.1390625 83.44789063 -93.28125 82.78515625 C-94.43754362 82.10684518 -95.59379342 81.42845942 -96.75 80.75 C-97.87921875 80.09386719 -99.0084375 79.43773437 -100.171875 78.76171875 C-106.81377381 74.89496516 -113.42166531 70.97386639 -120 67 C-117.60030318 64.34434213 -115.03555811 62.72001447 -111.93359375 60.953125 C-110.90427734 60.36337891 -109.87496094 59.77363281 -108.81445312 59.16601562 C-107.14286133 58.21758789 -107.14286133 58.21758789 -105.4375 57.25 C-104.26598539 56.58058653 -103.09476624 55.91065574 -101.92382812 55.24023438 C-99.49056166 53.84760003 -97.05603768 52.45720253 -94.62060547 51.06835938 C-89.06842407 47.89970234 -83.53519338 44.69820559 -78 41.5 C-75.83342291 40.24984475 -73.66675593 38.99984527 -71.5 37.75 C-70.4275 37.13125 -69.355 36.5125 -68.25 35.875 C-65 34 -61.75 32.125 -58.5 30.25 C-57.42596924 29.63036377 -56.35193848 29.01072754 -55.24536133 28.37231445 C-53.09416776 27.13124746 -50.94296345 25.89019907 -48.79174805 24.64916992 C-43.74037001 21.73501656 -38.6890969 18.82068182 -33.63821411 15.90567017 C-31.84933082 14.87326522 -30.06041283 13.84092044 -28.27148438 12.80859375 C-26.02662364 11.51314052 -23.7818281 10.2175743 -21.53710938 8.921875 C-19.55107352 7.7758429 -17.56309394 6.63316944 -15.57275391 5.49462891 C-14.00758627 4.58535236 -12.45395558 3.65527174 -10.92333984 2.68896484 C-7.02533576 0.25684041 -4.56246396 -0.39670531 0 0 Z " fill="#000000" transform="translate(259,113)"/>
<path d="M0 0 C2.26687616 1.14305021 4.43000729 2.3143993 6.61328125 3.59765625 C7.22769577 3.95137802 7.84211029 4.30509979 8.47514343 4.66954041 C10.424804 5.79397639 12.36865368 6.92804828 14.3125 8.0625 C15.63829933 8.82942043 16.96446754 9.59570354 18.29101562 10.36132812 C21.53166097 12.23353378 24.76713245 14.11439824 28 16 C28 16.99 28 17.98 28 19 C27.36835938 19.35078613 26.73671875 19.70157227 26.0859375 20.06298828 C12.33297865 27.70985139 -1.33369051 35.48090039 -14.91015625 43.4375 C-21.21570394 47.13213296 -27.54292711 50.78855706 -33.875 54.4375 C-34.94645264 55.05496094 -36.01790527 55.67242187 -37.12182617 56.30859375 C-39.30282225 57.56523415 -41.4838937 58.82174374 -43.66503906 60.078125 C-48.23458086 62.71146563 -52.80198958 65.34848745 -57.36865234 67.98681641 C-59.59391606 69.2705606 -61.82076495 70.5515616 -64.04931641 71.82958984 C-68.57876167 74.42890945 -73.09474778 77.03348366 -77.53125 79.7890625 C-78.17610352 80.18230713 -78.82095703 80.57555176 -79.48535156 80.98071289 C-81.08797663 81.96317438 -82.67759842 82.96676895 -84.265625 83.97265625 C-87.93911464 85.35283878 -89.39406483 84.42690625 -93 83 C-94.93713983 81.99983631 -96.84725752 80.94599754 -98.73046875 79.84765625 C-99.78041016 79.23599609 -100.83035156 78.62433594 -101.91210938 77.99414062 C-102.99298828 77.35669922 -104.07386719 76.71925781 -105.1875 76.0625 C-106.27998047 75.42892578 -107.37246094 74.79535156 -108.49804688 74.14257812 C-117.32098283 68.97276168 -117.32098283 68.97276168 -120 66 C-113.66497404 61.63141722 -107.16284177 57.73383884 -100.4375 54 C-92.35061753 49.47058863 -84.30832514 44.87578837 -76.3125 40.1875 C-67.57396919 35.06750786 -58.79995456 30.01335225 -50 25 C-38.94196166 18.69968504 -27.93214968 12.32116584 -16.94921875 5.890625 C-15.6660376 5.1471582 -15.6660376 5.1471582 -14.35693359 4.38867188 C-12.87508268 3.51558632 -11.40663474 2.61890587 -9.95947266 1.68945312 C-6.08863357 -0.74739473 -4.35511463 -1.31694471 0 0 Z " fill="#000000" transform="translate(344,162)"/>
<path d="M0 0 C2.44921875 1.9453125 2.44921875 1.9453125 4.3125 3.875 C5.3025 4.865 5.3025 4.865 6.3125 5.875 C-2.35338959 11.28060578 -11.1112217 16.46689984 -20 21.5 C-22.47620445 22.90719835 -24.9511803 24.31654656 -27.42578125 25.7265625 C-28.34981247 26.25289276 -28.34981247 26.25289276 -29.29251099 26.78985596 C-35.11490393 30.11051853 -40.90427362 33.48663061 -46.6875 36.875 C-55.3223417 41.93154943 -63.99379076 46.92067077 -72.6875 51.875 C-81.833552 57.08914275 -90.96332083 62.32930017 -100.0625 67.625 C-101.04863281 68.19734375 -102.03476563 68.7696875 -103.05078125 69.359375 C-105.60549537 70.84992349 -108.15078554 72.35405308 -110.6875 73.875 C-111.33235352 74.26107422 -111.97720703 74.64714844 -112.64160156 75.04492188 C-115.54486959 76.86570289 -116.56777324 77.51581972 -117.6875 80.875 C-117.84120348 83.60383073 -117.94478265 86.31197142 -118.00390625 89.04296875 C-118.02468735 89.83778152 -118.04546844 90.6325943 -118.06687927 91.45149231 C-118.13222087 93.98840763 -118.19118808 96.52542573 -118.25 99.0625 C-118.29319986 100.78321372 -118.33681463 102.50391708 -118.38085938 104.22460938 C-118.48788648 108.44130113 -118.58919724 112.6580962 -118.6875 116.875 C-120.66786486 115.89825896 -122.64676133 114.91854018 -124.625 113.9375 C-125.72714844 113.39222656 -126.82929688 112.84695313 -127.96484375 112.28515625 C-130.6875 110.875 -130.6875 110.875 -131.6875 109.875 C-131.77618299 106.91794679 -131.80270296 103.98434944 -131.78515625 101.02734375 C-131.7837413 100.1409169 -131.78232635 99.25449005 -131.78086853 98.34120178 C-131.77525215 95.49826746 -131.76269691 92.65541069 -131.75 89.8125 C-131.74498711 87.88997509 -131.74042384 85.96744896 -131.73632812 84.04492188 C-131.72527741 79.32158451 -131.70800183 74.59830542 -131.6875 69.875 C-112.1875 58.625 -92.6875 47.375 -73.1875 36.125 C-72.11459717 35.5060083 -71.04169434 34.8870166 -69.9362793 34.24926758 C-67.77371417 33.0016526 -65.61111661 31.75409384 -63.44848633 30.5065918 C-56.85747553 26.70448652 -50.26664367 22.90207851 -43.67993164 19.0925293 C-41.49645749 17.83393073 -39.30949269 16.58136639 -37.11889648 15.33520508 C-31.91176084 12.36610244 -26.7936745 9.33138929 -21.7734375 6.0546875 C-6.73913466 -3.57034466 -6.73913466 -3.57034466 0 0 Z " fill="#000000" transform="translate(318.6875,146.125)"/>
</svg>
